<svg xmlns="http://www.w3.org/2000/svg" width="1208" height="808"><style>path{fill:none;stroke:#000;stroke-width:1;stroke-linejoin:round}</style><path stroke="#000" d="M1 1h602v402H1z" style="fill:#f8f8ff" transform="scale(2)"/><path stroke-width="2" d="M24 6H6v16h18M24 22h20M24 6h20M44 6h20M44 22h2v2m18-2h-2v2M64 22h20M64 6h20M84 6h18v16H84M106 24V6h16v18M144 6h-18v16h18M144 6h20m-20 16h2v2m18-2h-2v2M164 6h18v16h-18M204 6h-18v16h18M204 22h20M204 6h20M224 22h20M224 6h20M244 22h20M244 6h20M264 6h20m-20 16h2v2m18-2h-2v2M284 22h20M284 6h20M304 22h20M304 6h20M324 22h20M324 6h20M344 6h18v16h-18M384 6h-18v16h18M384 22h20M384 6h20M404 22h20M404 6h20M424 22h20M424 6h20M444 22h20M444 6h20M464 22h20M464 6h20M484 22h20M484 6h20M504 6h20m-20 16h2v2m18-2h-2v2M524 22h20M524 6h20M544 22h20M544 6h20M564 22h20M564 6h20M584 22h20M584 6h20M604 22h20M604 6h20M624 22h20M624 6h20M644 6h18v16h-18M666 24V6h16v18M704 6h-18v16h18M704 22h20M704 6h20M724 22h20M724 6h20M744 22h20M744 6h20M764 22h20M764 6h20M784 6h20m-20 16h2v2m18-2h-2v2M804 22h20M804 6h20M824 22h20M824 6h20M844 22h20M844 6h20M864 22h20M864 6h20M884 6h18v16h-18M924 6h-18v16h18M924 22h20M924 6h20M944 22h20M944 6h20M964 22h20M964 6h20M984 22h20M984 6h20M1004 22h20m-20-16h20M1024 22h20m-20-16h20M1044 6h20m-20 16h2v2m18-2h-2v2M1064 22h20m-20-16h20M1084 22h20m-20-16h20M1104 22h20m-20-16h20M1124 22h20m-20-16h20M1144 22h20m-20-16h20M1164 22h20m-20-16h20M1184 6h18v16h-18M24 26H6v16h18M24 42h20M24 26h20M44 26h2v-2m18 2h-2v-2M44 42h2v2m18-2h-2v2M64 42h20M64 26h20M84 26h18v16H84M106 24v18h18m0-16h-2v-2M124 42h20m-20-16h20M144 42h20m-20-16h2v-2m18 2h-2v-2M164 42h20m-20-16h20M184 42h20m-20-16h20M204 42h20m-20-16h20M224 26h20m-20 16h2v2m18-2h-2v2M244 42h20m-20-16h20M264 42h20m-20-16h2v-2m18 2h-2v-2M284 42h20m-20-16h20M304 42h20m-20-16h20M324 42h20m-20-16h20M344 26h18v16h-18M384 26h-18v16h18M384 42h20m-20-16h20M404 42h20m-20-16h20M424 42h20m-20-16h20M444 42h20m-20-16h20M464 42h20m-20-16h20M484 26h20m-20 16h2v2m18-2h-2v2M504 42h20m-20-16h2v-2m18 2h-2v-2M524 42h20m-20-16h20M544 42h20m-20-16h20M564 42h20m-20-16h20M584 42h20m-20-16h20M604 26h18v16h-18M644 26h-18v16h18M644 42h20m-20-16h20M664 42h20m-20-16h2v-2m18 2h-2v-2M684 42h20m-20-16h20M704 26h20m-20 16h2v2m18-2h-2v2M724 42h20m-20-16h20M744 42h20m-20-16h20M764 42h20m-20-16h20M784 42h18V24m-18 2h2v-2M806 44V26h16v18M844 26h-18v16h18M844 26h20m-20 16h2v2m18-2h-2v2M864 26h18v16h-18M886 44V26h16v18M924 26h-18v16h18M924 42h20m-20-16h20M944 42h20m-20-16h20M964 42h20m-20-16h20M984 42h20m-20-16h20M1004 42h20m-20-16h20M1024 26h20m-20 16h2v2m18-2h-2v2M1044 42h20m-20-16h2v-2m18 2h-2v-2M1064 42h20m-20-16h20M1084 42h20m-20-16h20M1104 42h20m-20-16h20M1124 42h20m-20-16h20M1144 26h18v16h-18M1166 44V26h18m0 16h-2v2M1184 26h18v16h-18M24 46H6v16h18M24 62h20M24 46h20M44 46h2v-2m18 2h-2v-2M44 62h2v2m18-2h-2v2M64 62h20M64 46h20M84 46h18v16H84M124 46h-18v16h18M124 62h20m-20-16h20M144 62h20m-20-16h20M164 62h20m-20-16h20M184 62h20m-20-16h20M204 62h20m-20-16h20M224 62h20m-20-16h2v-2m18 2h-2v-2M244 62h20m-20-16h20M264 62h20m-20-16h20M284 62h20m-20-16h20M304 62h20m-20-16h20M324 62h20m-20-16h20M344 62h20m-20-16h20M364 62h20m-20-16h20M384 62h20m-20-16h20M404 46h20m-20 16h2v2m18-2h-2v2M424 62h20m-20-16h20M444 62h20m-20-16h20M464 62h20m-20-16h20M484 62h20m-20-16h2v-2m18 2h-2v-2M504 62h20m-20-16h20M524 62h20m-20-16h20M544 62h20m-20-16h20M564 62h20m-20-16h20M584 62h20m-20-16h20M604 62h20m-20-16h20M624 62h20m-20-16h20M644 62h20m-20-16h20M664 62h20m-20-16h20M684 62h20m-20-16h20M704 62h18V44m-18 2h2v-2M744 46h-18v16h18M744 62h20m-20-16h20M764 62h20m-20-16h20M784 46h20m-20 16h2v2m18-2h-2v2M804 62h20m-20-16h2v-2m18 2h-2v-2M824 62h20m-20-16h20M844 62h18V44m-18 2h2v-2M884 46h-18v16h18M884 62h20m-20-16h2v-2m18 2h-2v-2M904 46h20m-20 16h2v2m18-2h-2v2M924 62h20m-20-16h20M944 46h18v16h-18M984 46h-18v16h18M984 46h20m-20 16h2v2m18-2h-2v2M1004 46h18v16h-18M1026 44v20m16-20v20M1046 64V46h16v18M1066 64V46h16v18M1104 46h-18v16h18M1104 62h20m-20-16h20M1124 46h20m-20 16h2v2m18-2h-2v2M1144 62h20m-20-16h20M1164 62h20m-20-16h2v-2m18 2h-2v-2M1184 46h18v16h-18M24 66H6v16h18M24 66h20M24 82h2v2m18-2h-2v2M44 82h18V64m-18 2h2v-2M84 66H66v16h18M84 82h20M84 66h20M104 66h20m-20 16h2v2m18-2h-2v2M124 82h20m-20-16h20M144 66h18v16h-18M166 84V66h16v18M204 66h-18v16h18M204 66h20m-20 16h2v2m18-2h-2v2M224 66h18v16h-18M246 84V66h16v18M266 84V66h16v18M304 66h-18v16h18M304 66h20m-20 16h2v2m18-2h-2v2M324 66h18v16h-18M346 84V66h16v18M384 66h-18v16h18M384 66h20m-20 16h2v2m18-2h-2v2M404 82h18V64m-18 2h2v-2M444 66h-18v16h18M444 82h20m-20-16h20M464 82h20m-20-16h20M484 82h20m-20-16h20M504 82h20m-20-16h20M524 82h20m-20-16h20M544 82h20m-20-16h20M564 82h20m-20-16h20M584 66h20m-20 16h2v2m18-2h-2v2M604 82h20m-20-16h20M624 82h20m-20-16h20M644 82h20m-20-16h20M664 82h20m-20-16h20M684 82h20m-20-16h20M704 82h20m-20-16h20M724 82h20m-20-16h20M744 66h18v16h-18M784 66h-18v16h18M784 82h20m-20-16h2v-2m18 2h-2v-2M804 82h20m-20-16h20M824 82h20m-20-16h20M844 82h20m-20-16h20M864 66h20m-20 16h2v2m18-2h-2v2M884 82h20m-20-16h20M904 82h20m-20-16h2v-2m18 2h-2v-2M924 82h20m-20-16h20M944 82h20m-20-16h20M964 66h18v16h-18M986 64v18h18m0-16h-2v-2M1004 82h20m-20-16h20M1024 82h20m-20-16h2v-2m18 2h-2v-2M1044 82h20m-20-16h2v-2m18 2h-2v-2M1064 82h20m-20-16h2v-2m18 2h-2v-2M1084 66h20m-20 16h2v2m18-2h-2v2M1104 82h20m-20-16h20M1124 82h20m-20-16h2v-2m18 2h-2v-2M1144 82h20m-20-16h20M1164 82h20m-20-16h20M1184 66h18v16h-18M6 104V86h16v18M26 84v18h18m0-16h-2v-2M44 86h20m-20 16h2v2m18-2h-2v2M64 86h18v16H64M104 86H86v16h18M104 102h20m-20-16h2v-2m18 2h-2v-2M124 102h20m-20-16h20M144 102h20m-20-16h20M164 102h20m-20-16h2v-2m18 2h-2v-2M184 102h20m-20-16h20M204 102h20m-20-16h2v-2m18 2h-2v-2M224 102h20m-20-16h20M244 102h20m-20-16h2v-2m18 2h-2v-2M264 102h20m-20-16h2v-2m18 2h-2v-2M284 102h20m-20-16h20M304 102h20m-20-16h2v-2m18 2h-2v-2M324 102h20m-20-16h20M344 102h20m-20-16h2v-2m18 2h-2v-2M364 102h20m-20-16h20M384 102h20m-20-16h2v-2m18 2h-2v-2M404 102h20m-20-16h20M424 86h20m-20 16h2v2m18-2h-2v2M444 102h20m-20-16h20M464 102h20m-20-16h20M484 102h20m-20-16h20M504 102h20m-20-16h20M524 102h20m-20-16h20M544 102h20m-20-16h20M564 102h20m-20-16h20M584 102h20m-20-16h2v-2m18 2h-2v-2M604 102h20m-20-16h20M624 102h20m-20-16h20M644 102h20m-20-16h20M664 102h20m-20-16h20M684 102h20m-20-16h20M704 102h20m-20-16h20M724 102h20m-20-16h20M744 102h20m-20-16h20M764 86h18v16h-18M804 86h-18v16h18M804 102h20m-20-16h20M824 102h20m-20-16h20M844 102h20m-20-16h20M864 86h2v-2m18 2h-2v-2m-18 18h2v2m18-2h-2v2M884 102h20m-20-16h20M904 102h20m-20-16h20M924 102h20m-20-16h20M944 86h18v16h-18M984 86h-18v16h18M984 102h20m-20-16h20M1004 102h20m-20-16h20M1024 102h20m-20-16h20M1044 102h20m-20-16h20M1064 86h20m-20 16h2v2m18-2h-2v2M1084 102h20m-20-16h2v-2m18 2h-2v-2M1104 102h20m-20-16h20M1124 102h20m-20-16h20M1144 102h20m-20-16h20M1164 102h20m-20-16h20M1184 86h18v16h-18M6 104v18h18m0-16h-2v-2M24 122h20m-20-16h20M44 122h20m-20-16h2v-2m18 2h-2v-2M64 122h20m-20-16h20M84 122h20m-20-16h20M104 106h20m-20 16h2v2m18-2h-2v2M124 122h20m-20-16h20M144 122h20m-20-16h20M164 122h20m-20-16h20M184 122h20m-20-16h20M204 106h18v16h-18M244 106h-18v16h18M244 122h20m-20-16h20M264 122h20m-20-16h20M284 122h20m-20-16h20M304 122h20m-20-16h20M324 122h20m-20-16h20M344 106h20m-20 16h2v2m18-2h-2v2M364 122h20m-20-16h20M384 122h20m-20-16h20M404 122h20m-20-16h20M424 122h20m-20-16h2v-2m18 2h-2v-2M444 122h20m-20-16h20M464 106h18v16h-18M504 106h-18v16h18M504 122h20m-20-16h20M524 122h20m-20-16h20M544 122h20m-20-16h20M564 122h20m-20-16h20M584 122h20m-20-16h20M604 122h20m-20-16h20M624 106h20m-20 16h2v2m18-2h-2v2M644 122h20m-20-16h20M664 122h20m-20-16h20M684 122h20m-20-16h20M704 122h20m-20-16h20M724 122h20m-20-16h20M744 122h20m-20-16h20M764 106h18v16h-18M804 106h-18v16h18M804 106h20m-20 16h2v2m18-2h-2v2M824 106h18v16h-18M864 106h-18v16h18M864 106h2v-2m18 2h-2v-2m-18 18h2v2m18-2h-2v2M884 106h18v16h-18M924 106h-18v16h18M924 122h20m-20-16h20M944 106h20m-20 16h2v2m18-2h-2v2M964 122h20m-20-16h20M984 106h18v16h-18M1024 106h-18v16h18M1024 106h20m-20 16h2v2m18-2h-2v2M1044 106h18v16h-18M1066 104v20m16-20v20M1104 106h-18v16h18M1104 122h20m-20-16h20M1124 106h20m-20 16h2v2m18-2h-2v2M1144 122h20m-20-16h20M1164 122h20m-20-16h20M1184 106h18v16h-18M24 126H6v16h18M24 142h20m-20-16h20M44 142h20m-20-16h20M64 126h20m-20 16h2v2m18-2h-2v2M84 142h20m-20-16h20M104 142h20m-20-16h2v-2m18 2h-2v-2M124 126h18v16h-18M146 144v-18h16v18M166 144v-18h16v18M204 126h-18v16h18M204 142h20m-20-16h20M224 126h20m-20 16h2v2m18-2h-2v2M244 142h20m-20-16h20M264 126h18v16h-18M304 126h-18v16h18M304 126h20m-20 16h2v2m18-2h-2v2M324 126h18v16h-18M346 124v18h18m0-16h-2v-2M364 142h20m-20-16h20M384 126h20m-20 16h2v2m18-2h-2v2M404 142h20m-20-16h20M424 126h18v16h-18M464 126h-18v16h18M464 142h20m-20-16h20M484 142h20m-20-16h20M504 142h20m-20-16h20M524 142h20m-20-16h20M544 142h20m-20-16h20M564 126h20m-20 16h2v2m18-2h-2v2M584 142h20m-20-16h20M604 142h20m-20-16h20M624 142h20m-20-16h2v-2m18 2h-2v-2M644 142h20m-20-16h20M664 142h20m-20-16h20M684 126h18v16h-18M706 144v-18h16v18M744 126h-18v16h18M744 126h20m-20 16h2v2m18-2h-2v2M764 126h18v16h-18M786 144v-18h16v18M806 124v18h18m0-16h-2v-2M824 142h20m-20-16h20M844 142h20m-20-16h20M864 142h20m-20-16h2v-2m18 2h-2v-2M884 142h20m-20-16h20M904 126h20m-20 16h2v2m18-2h-2v2M924 142h20m-20-16h20M944 142h20m-20-16h2v-2m18 2h-2v-2M964 142h20m-20-16h20M984 142h20m-20-16h20M1004 126h18v16h-18M1026 124v18h18m0-16h-2v-2M1044 142h20m-20-16h20M1064 142h20m-20-16h2v-2m18 2h-2v-2M1084 142h20m-20-16h20M1104 126h20m-20 16h2v2m18-2h-2v2M1124 142h20m-20-16h2v-2m18 2h-2v-2M1144 142h20m-20-16h20M1164 142h20m-20-16h20M1184 126h18v16h-18M24 146H6v16h18M24 162h20m-20-16h20M44 162h20m-20-16h20M64 162h20m-20-16h2v-2m18 2h-2v-2M84 162h20m-20-16h20M104 162h20m-20-16h20M124 162h20m-20-16h20M144 146h2v-2m18 2h-2v-2m-18 18h2v2m18-2h-2v2M164 162h20m-20-16h2v-2m18 2h-2v-2M184 162h20m-20-16h20M204 162h20m-20-16h20M224 162h20m-20-16h2v-2m18 2h-2v-2M244 162h20m-20-16h20M264 162h20m-20-16h20M284 146h18v16h-18M306 144v18h18m0-16h-2v-2M324 162h20m-20-16h20M344 162h20m-20-16h20M364 162h20m-20-16h20M384 162h20m-20-16h2v-2m18 2h-2v-2M404 162h20m-20-16h20M424 162h20m-20-16h20M444 162h20m-20-16h20M464 162h20m-20-16h20M484 146h20m-20 16h2v2m18-2h-2v2M504 162h20m-20-16h20M524 162h20m-20-16h20M544 162h20m-20-16h20M564 162h20m-20-16h2v-2m18 2h-2v-2M584 162h20m-20-16h20M604 162h20m-20-16h20M624 162h20m-20-16h20M644 162h20m-20-16h20M664 146h18v16h-18M686 164v-18h16v18M706 144v18h18m0-16h-2v-2M724 162h20m-20-16h20M744 162h20m-20-16h2v-2m18 2h-2v-2M764 162h20m-20-16h20M784 162h20m-20-16h2v-2m18 2h-2v-2M804 162h20m-20-16h20M824 146h20m-20 16h2v2m18-2h-2v2M844 162h20m-20-16h20M864 162h20m-20-16h20M884 162h20m-20-16h20M904 162h20m-20-16h2v-2m18 2h-2v-2M924 162h20m-20-16h20M944 146h18v16h-18M984 146h-18v16h18M984 162h20m-20-16h20M1004 162h20m-20-16h20M1024 146h20m-20 16h2v2m18-2h-2v2M1044 162h20m-20-16h20M1064 162h20m-20-16h20M1084 146h18v16h-18M1106 144v18h18m0-16h-2v-2M1124 146h20m-20 16h2v2m18-2h-2v2M1144 146h18v16h-18M1166 164v-18h18m0 16h-2v2M1184 146h18v16h-18M24 166H6v16h18M24 182h20m-20-16h20M44 182h20m-20-16h20M64 182h20m-20-16h20M84 166h20m-20 16h2v2m18-2h-2v2M104 182h20m-20-16h20M124 182h20m-20-16h20M144 182h20m-20-16h2v-2m18 2h-2v-2M164 166h18v16h-18M204 166h-18v16h18M204 182h20m-20-16h20M224 166h20m-20 16h2v2m18-2h-2v2M244 182h20m-20-16h20M264 166h18v16h-18M304 166h-18v16h18M304 182h20m-20-16h20M324 182h20m-20-16h20M344 182h20m-20-16h20M364 182h20m-20-16h20M384 182h20m-20-16h20M404 182h20m-20-16h20M424 166h20m-20 16h2v2m18-2h-2v2M444 182h20m-20-16h20M464 182h20m-20-16h20M484 182h20m-20-16h2v-2m18 2h-2v-2M504 182h20m-20-16h20M524 182h20m-20-16h20M544 182h20m-20-16h20M564 166h18v16h-18M604 166h-18v16h18M604 166h20m-20 16h2v2m18-2h-2v2M624 166h18v16h-18M664 166h-18v16h18M664 166h20m-20 16h2v2m18-2h-2v2M684 182h18v-18m-18 2h2v-2M706 184v-18h16v18M726 184v-18h16v18M764 166h-18v16h18M764 166h20m-20 16h2v2m18-2h-2v2M784 166h18v16h-18M806 184v-18h16v18M826 164v18h18m0-16h-2v-2M844 166h20m-20 16h2v2m18-2h-2v2M864 166h18v16h-18M904 166h-18v16h18M904 182h20m-20-16h20M924 182h20m-20-16h20M944 182h20m-20-16h20M964 182h20m-20-16h20M984 182h20m-20-16h20M1004 182h20m-20-16h20M1024 166h2v-2m18 2h-2v-2m-18 18h2v2m18-2h-2v2M1044 182h20m-20-16h20M1064 182h20m-20-16h20M1084 182h20m-20-16h20M1104 182h20m-20-16h20M1124 182h20m-20-16h2v-2m18 2h-2v-2M1144 182h20m-20-16h20M1164 182h18v-18m-18 2h2v-2M1186 184v-18h16v18M24 186H6v16h18M24 202h20m-20-16h20M44 202h20m-20-16h20M64 202h20m-20-16h20M84 202h20m-20-16h2v-2m18 2h-2v-2M104 202h20m-20-16h20M124 202h20m-20-16h20M144 202h20m-20-16h20M164 202h20m-20-16h20M184 202h20m-20-16h20M204 186h20m-20 16h2v2m18-2h-2v2M224 202h20m-20-16h2v-2m18 2h-2v-2M244 202h20m-20-16h20M264 202h20m-20-16h20M284 202h20m-20-16h20M304 202h20m-20-16h20M324 202h20m-20-16h20M344 202h20m-20-16h20M364 202h20m-20-16h20M384 202h20m-20-16h20M404 186h18v16h-18M426 184v18h18m0-16h-2v-2M444 202h20m-20-16h20M464 202h20m-20-16h20M484 202h20m-20-16h20M504 202h20m-20-16h20M524 186h20m-20 16h2v2m18-2h-2v2M544 202h20m-20-16h20M564 202h20m-20-16h20M584 202h20m-20-16h20M604 202h20m-20-16h2v-2m18 2h-2v-2M624 186h18v16h-18M664 186h-18v16h18M664 202h20m-20-16h2v-2m18 2h-2v-2M684 202h20m-20-16h20M704 202h20m-20-16h2v-2m18 2h-2v-2M724 202h20m-20-16h2v-2m18 2h-2v-2M744 186h20m-20 16h2v2m18-2h-2v2M764 202h20m-20-16h2v-2m18 2h-2v-2M784 202h20m-20-16h20M804 202h20m-20-16h2v-2m18 2h-2v-2M824 202h20m-20-16h20M844 202h18v-18m-18 2h2v-2M884 186h-18v16h18M884 202h20m-20-16h20M904 202h20m-20-16h20M924 202h20m-20-16h20M944 186h20m-20 16h2v2m18-2h-2v2M964 202h20m-20-16h20M984 202h20m-20-16h20M1004 202h20m-20-16h20M1024 202h18v-18m-18 2h2v-2M1064 186h-18v16h18M1064 202h20m-20-16h20M1084 186h20m-20 16h2v2m18-2h-2v2M1104 202h20m-20-16h20M1124 186h18v16h-18M1146 204v-18h16v18M1166 204v-18h18m0 16h-2v2M1184 202h18v-18m-18 2h2v-2M24 206H6v16h18M24 222h20m-20-16h20M44 222h20m-20-16h20M64 206h20m-20 16h2v2m18-2h-2v2M84 222h20m-20-16h20M104 222h20m-20-16h20M124 206h18v16h-18M164 206h-18v16h18M164 206h20m-20 16h2v2m18-2h-2v2M184 206h18v16h-18M206 204v20m16-20v20M244 206h-18v16h18M244 222h20m-20-16h20M264 206h20m-20 16h2v2m18-2h-2v2M284 222h20m-20-16h20M304 206h18v16h-18M326 224v-18h16v18M346 224v-18h16v18M384 206h-18v16h18M384 222h20m-20-16h20M404 222h20m-20-16h20M424 222h20m-20-16h20M444 222h20m-20-16h20M464 222h20m-20-16h20M484 222h20m-20-16h20M504 222h20m-20-16h20M524 222h20m-20-16h2v-2m18 2h-2v-2M544 222h20m-20-16h20M564 222h20m-20-16h20M584 206h20m-20 16h2v2m18-2h-2v2M604 222h20m-20-16h20M624 222h20m-20-16h20M644 222h20m-20-16h20M664 222h20m-20-16h20M684 222h20m-20-16h20M704 222h20m-20-16h20M724 222h20m-20-16h20M744 222h20m-20-16h2v-2m18 2h-2v-2M764 222h20m-20-16h20M784 222h20m-20-16h20M804 206h18v16h-18M826 224v-18h16v18M864 206h-18v16h18M864 222h20m-20-16h20M884 222h20m-20-16h20M904 222h20m-20-16h20M924 222h20m-20-16h20M944 222h20m-20-16h2v-2m18 2h-2v-2M964 206h20m-20 16h2v2m18-2h-2v2M984 222h20m-20-16h20M1004 222h20m-20-16h20M1024 222h20m-20-16h20M1044 222h20m-20-16h20M1064 222h20m-20-16h20M1084 222h18v-18m-18 2h2v-2M1106 224v-18h16v18M1144 206h-18v16h18M1144 206h2v-2m18 2h-2v-2m-18 18h2v2m18-2h-2v2M1164 222h20m-20-16h2v-2m18 2h-2v-2M1184 206h18v16h-18M24 226H6v16h18M24 242h20m-20-16h20M44 242h20m-20-16h20M64 242h20m-20-16h2v-2m18 2h-2v-2M84 226h20m-20 16h2v2m18-2h-2v2M104 242h20m-20-16h20M124 242h20m-20-16h20M144 242h20m-20-16h20M164 242h18v-18m-18 2h2v-2M204 226h-18v16h18M204 242h20m-20-16h2v-2m18 2h-2v-2M224 226h20m-20 16h2v2m18-2h-2v2M244 242h20m-20-16h20M264 242h18v-18m-18 2h2v-2M304 226h-18v16h18M304 242h20m-20-16h20M324 242h20m-20-16h2v-2m18 2h-2v-2M344 242h20m-20-16h2v-2m18 2h-2v-2M364 226h20m-20 16h2v2m18-2h-2v2M384 242h20m-20-16h20M404 242h20m-20-16h20M424 242h20m-20-16h20M444 226h18v16h-18M484 226h-18v16h18M484 226h20m-20 16h2v2m18-2h-2v2M504 226h18v16h-18M544 226h-18v16h18M544 242h20m-20-16h20M564 242h20m-20-16h20M584 226h2v-2m18 2h-2v-2m-18 18h2v2m18-2h-2v2M604 242h20m-20-16h20M624 242h20m-20-16h20M644 226h18v16h-18M684 226h-18v16h18M684 242h20m-20-16h20M704 242h20m-20-16h20M724 242h20m-20-16h20M744 226h20m-20 16h2v2m18-2h-2v2M764 242h20m-20-16h20M784 242h20m-20-16h20M804 242h20m-20-16h20M824 242h18v-18m-18 2h2v-2M864 226h-18v16h18M864 242h20m-20-16h20M884 242h20m-20-16h20M904 242h20m-20-16h20M924 242h20m-20-16h20M944 242h20m-20-16h20M964 226h2v-2m18 2h-2v-2m-18 18h2v2m18-2h-2v2M984 242h20m-20-16h20M1004 242h20m-20-16h20M1024 242h20m-20-16h20M1044 242h20m-20-16h20M1064 242h20m-20-16h20M1084 226h18v16h-18M1106 224v18h18m0-16h-2v-2M1124 242h20m-20-16h20M1144 226h2v-2m18 2h-2v-2m-18 18h2v2m18-2h-2v2M1164 242h20m-20-16h20M1184 226h18v16h-18M24 246H6v16h18M24 262h20m-20-16h20M44 262h20m-20-16h20M64 262h20m-20-16h20M84 262h20m-20-16h2v-2m18 2h-2v-2M104 262h20m-20-16h20M124 246h20m-20 16h2v2m18-2h-2v2M144 262h20m-20-16h20M164 262h20m-20-16h20M184 262h20m-20-16h20M204 262h20m-20-16h20M224 262h20m-20-16h2v-2m18 2h-2v-2M244 246h18v16h-18M266 264v-18h16v18M304 246h-18v16h18M304 246h20m-20 16h2v2m18-2h-2v2M324 246h18v16h-18M346 264v-18h16v18M366 244v20m16-20v20M386 264v-18h16v18M424 246h-18v16h18M424 246h20m-20 16h2v2m18-2h-2v2M444 246h18v16h-18M484 246h-18v16h18M484 262h20m-20-16h2v-2m18 2h-2v-2M504 262h20m-20-16h20M524 262h20m-20-16h20M544 262h20m-20-16h20M564 246h20m-20 16h2v2m18-2h-2v2M584 262h20m-20-16h2v-2m18 2h-2v-2M604 262h20m-20-16h20M624 262h20m-20-16h20M644 262h20m-20-16h20M664 246h18v16h-18M704 246h-18v16h18M704 262h20m-20-16h20M724 246h20m-20 16h2v2m18-2h-2v2M744 262h20m-20-16h2v-2m18 2h-2v-2M764 246h18v16h-18M804 246h-18v16h18M804 262h20m-20-16h20M824 262h20m-20-16h20M844 262h20m-20-16h20M864 262h20m-20-16h20M884 262h20m-20-16h20M904 262h20m-20-16h20M924 262h20m-20-16h20M944 262h20m-20-16h20M964 262h20m-20-16h2v-2m18 2h-2v-2M984 246h20m-20 16h2v2m18-2h-2v2M1004 262h20m-20-16h20M1024 262h20m-20-16h20M1044 262h20m-20-16h20M1064 262h20m-20-16h20M1084 262h20m-20-16h20M1104 262h20m-20-16h20M1124 262h20m-20-16h20M1144 262h20m-20-16h2v-2m18 2h-2v-2M1164 262h20m-20-16h20M1184 246h18v16h-18M24 266H6v16h18M24 282h20m-20-16h20M44 282h20m-20-16h20M64 282h20m-20-16h20M84 282h20m-20-16h20M104 282h20m-20-16h20M124 282h20m-20-16h2v-2m18 2h-2v-2M144 266h20m-20 16h2v2m18-2h-2v2M164 282h20m-20-16h20M184 282h20m-20-16h20M204 282h20m-20-16h20M224 282h20m-20-16h20M244 282h20m-20-16h20M264 282h20m-20-16h2v-2m18 2h-2v-2M284 266h18v16h-18M306 264v20m16-20v20M344 266h-18v16h18M344 282h20m-20-16h2v-2m18 2h-2v-2M364 282h20m-20-16h2v-2m18 2h-2v-2M384 282h20m-20-16h2v-2m18 2h-2v-2M404 282h20m-20-16h20M424 266h2v-2m18 2h-2v-2m-18 18h2v2m18-2h-2v2M444 282h20m-20-16h20M464 282h20m-20-16h20M484 282h20m-20-16h20M504 282h20m-20-16h20M524 266h18v16h-18M546 284v-18h16v18M566 264v20m16-20v20M604 266h-18v16h18M604 266h20m-20 16h2v2m18-2h-2v2M624 266h18v16h-18M664 266h-18v16h18M664 282h20m-20-16h20M684 282h20m-20-16h20M704 282h20m-20-16h20M724 282h20m-20-16h2v-2m18 2h-2v-2M744 266h20m-20 16h2v2m18-2h-2v2M764 282h20m-20-16h20M784 282h20m-20-16h20M804 282h20m-20-16h20M824 282h20m-20-16h20M844 266h18v16h-18M884 266h-18v16h18M884 282h20m-20-16h20M904 282h20m-20-16h20M924 282h20m-20-16h20M944 282h20m-20-16h20M964 282h20m-20-16h20M984 282h20m-20-16h2v-2m18 2h-2v-2M1004 282h20m-20-16h20M1024 266h20m-20 16h2v2m18-2h-2v2M1044 282h20m-20-16h20M1064 282h20m-20-16h20M1084 282h20m-20-16h20M1104 282h20m-20-16h20M1124 282h20m-20-16h20M1144 282h20m-20-16h20M1164 282h20m-20-16h20M1184 266h18v16h-18M24 286H6v16h18M24 286h20m-20 16h2v2m18-2h-2v2M44 286h18v16H44M84 286H66v16h18M84 286h20m-20 16h2v2m18-2h-2v2M104 286h18v16h-18M144 286h-18v16h18M144 302h20m-20-16h2v-2m18 2h-2v-2M164 302h20m-20-16h20M184 302h20m-20-16h20M204 302h20m-20-16h20M224 302h20m-20-16h20M244 302h20m-20-16h20M264 302h20m-20-16h20M284 302h20m-20-16h20M304 302h20m-20-16h2v-2m18 2h-2v-2M324 302h20m-20-16h20M344 302h20m-20-16h20M364 302h20m-20-16h20M384 286h20m-20 16h2v2m18-2h-2v2M404 302h20m-20-16h20M424 302h20m-20-16h2v-2m18 2h-2v-2M444 302h20m-20-16h20M464 302h20m-20-16h20M484 302h20m-20-16h20M504 302h20m-20-16h20M524 302h20m-20-16h20M544 302h20m-20-16h2v-2m18 2h-2v-2M564 302h20m-20-16h2v-2m18 2h-2v-2M584 302h20m-20-16h20M604 302h20m-20-16h2v-2m18 2h-2v-2M624 302h20m-20-16h20M644 286h18v16h-18M684 286h-18v16h18M684 302h20m-20-16h20M704 286h20m-20 16h2v2m18-2h-2v2M724 302h20m-20-16h20M744 302h18v-18m-18 2h2v-2M784 286h-18v16h18M784 302h20m-20-16h20M804 302h20m-20-16h20M824 302h20m-20-16h20M844 302h20m-20-16h20M864 286h20m-20 16h2v2m18-2h-2v2M884 302h20m-20-16h20M904 302h20m-20-16h20M924 302h20m-20-16h20M944 302h20m-20-16h20M964 286h18v16h-18M1004 286h-18v16h18M1004 302h20m-20-16h20M1024 302h20m-20-16h2v-2m18 2h-2v-2M1044 302h20m-20-16h20M1064 302h20m-20-16h20M1084 286h20m-20 16h2v2m18-2h-2v2M1104 302h20m-20-16h20M1124 302h20m-20-16h20M1144 302h20m-20-16h20M1164 302h20m-20-16h20M1184 286h18v16h-18M24 306H6v16h18M24 322h20m-20-16h2v-2m18 2h-2v-2M44 322h20m-20-16h20M64 322h20m-20-16h20M84 322h20m-20-16h2v-2m18 2h-2v-2M104 322h20m-20-16h20M124 322h20m-20-16h20M144 322h20m-20-16h20M164 322h20m-20-16h20M184 322h20m-20-16h20M204 306h20m-20 16h2v2m18-2h-2v2M224 322h20m-20-16h20M244 322h20m-20-16h20M264 322h20m-20-16h20M284 322h20m-20-16h20M304 322h20m-20-16h20M324 322h20m-20-16h20M344 322h20m-20-16h20M364 322h20m-20-16h20M384 322h20m-20-16h2v-2m18 2h-2v-2M404 306h18v16h-18M444 306h-18v16h18M444 322h20m-20-16h20M464 322h20m-20-16h20M484 322h20m-20-16h20M504 322h20m-20-16h20M524 322h20m-20-16h20M544 322h20m-20-16h20M564 322h20m-20-16h20M584 322h20m-20-16h20M604 322h20m-20-16h20M624 306h20m-20 16h2v2m18-2h-2v2M644 322h20m-20-16h20M664 322h20m-20-16h20M684 322h20m-20-16h20M704 322h20m-20-16h2v-2m18 2h-2v-2M724 322h20m-20-16h20M744 322h20m-20-16h20M764 322h20m-20-16h20M784 322h20m-20-16h20M804 322h20m-20-16h20M824 306h18v16h-18M864 306h-18v16h18M864 322h20m-20-16h2v-2m18 2h-2v-2M884 322h20m-20-16h20M904 306h20m-20 16h2v2m18-2h-2v2M924 322h20m-20-16h20M944 322h20m-20-16h20M964 306h18v16h-18M1004 306h-18v16h18M1004 306h20m-20 16h2v2m18-2h-2v2M1024 306h18v16h-18M1064 306h-18v16h18M1064 322h20m-20-16h20M1084 322h20m-20-16h2v-2m18 2h-2v-2M1104 306h20m-20 16h2v2m18-2h-2v2M1124 322h20m-20-16h20M1144 322h20m-20-16h20M1164 322h20m-20-16h20M1184 306h18v16h-18M24 326H6v16h18M24 342h20m-20-16h20M44 342h20m-20-16h20M64 342h20m-20-16h20M84 326h20m-20 16h2v2m18-2h-2v2M104 342h20m-20-16h20M124 342h20m-20-16h20M144 342h20m-20-16h20M164 326h18v16h-18M204 326h-18v16h18M204 342h20m-20-16h2v-2m18 2h-2v-2M224 342h20m-20-16h20M244 342h20m-20-16h20M264 342h20m-20-16h20M284 326h20m-20 16h2v2m18-2h-2v2M304 342h20m-20-16h20M324 342h20m-20-16h20M344 342h20m-20-16h20M364 342h20m-20-16h20M384 326h18v16h-18M406 344v-18h16v18M444 326h-18v16h18M444 342h20m-20-16h20M464 342h20m-20-16h20M484 342h20m-20-16h20M504 342h20m-20-16h20M524 342h20m-20-16h20M544 326h20m-20 16h2v2m18-2h-2v2M564 342h20m-20-16h20M584 342h20m-20-16h20M604 342h20m-20-16h20M624 342h20m-20-16h2v-2m18 2h-2v-2M644 342h20m-20-16h20M664 326h18v16h-18M704 326h-18v16h18M704 342h20m-20-16h20M724 326h20m-20 16h2v2m18-2h-2v2M744 342h20m-20-16h20M764 326h18v16h-18M804 326h-18v16h18M804 342h20m-20-16h20M824 342h20m-20-16h20M844 326h20m-20 16h2v2m18-2h-2v2M864 342h20m-20-16h20M884 342h20m-20-16h20M904 342h18v-18m-18 2h2v-2M926 344v-18h16v18M964 326h-18v16h18M964 342h20m-20-16h20M984 342h20m-20-16h20M1004 342h20m-20-16h2v-2m18 2h-2v-2M1024 326h20m-20 16h2v2m18-2h-2v2M1044 342h20m-20-16h20M1064 342h20m-20-16h20M1084 342h20m-20-16h20M1104 342h18v-18m-18 2h2v-2M1144 326h-18v16h18M1144 326h20m-20 16h2v2m18-2h-2v2M1164 342h20m-20-16h20M1184 326h18v16h-18M24 346H6v16h18M24 362h20m-20-16h20M44 362h20m-20-16h20M64 362h20m-20-16h20M84 362h20m-20-16h2v-2m18 2h-2v-2M104 362h20m-20-16h20M124 346h20m-20 16h2v2m18-2h-2v2M144 362h20m-20-16h20M164 362h20m-20-16h20M184 362h20m-20-16h20M204 362h20m-20-16h20M224 362h20m-20-16h20M244 346h18v16h-18M266 364v-18h16v18M286 344v18h18m0-16h-2v-2M304 362h20m-20-16h20M324 362h20m-20-16h20M344 362h20m-20-16h20M364 362h20m-20-16h20M384 346h20m-20 16h2v2m18-2h-2v2M404 362h20m-20-16h2v-2m18 2h-2v-2M424 362h20m-20-16h20M444 362h20m-20-16h20M464 362h20m-20-16h20M484 346h18v16h-18M524 346h-18v16h18M524 362h20m-20-16h20M544 362h20m-20-16h2v-2m18 2h-2v-2M564 362h20m-20-16h20M584 362h20m-20-16h20M604 346h20m-20 16h2v2m18-2h-2v2M624 362h20m-20-16h20M644 362h20m-20-16h20M664 362h20m-20-16h20M684 362h20m-20-16h20M704 346h18v16h-18M726 344v18h18m0-16h-2v-2M744 346h20m-20 16h2v2m18-2h-2v2M764 346h18v16h-18M786 364v-18h16v18M824 346h-18v16h18M824 362h20m-20-16h20M844 362h20m-20-16h2v-2m18 2h-2v-2M864 362h20m-20-16h20M884 362h20m-20-16h20M904 362h20m-20-16h20M924 362h20m-20-16h2v-2m18 2h-2v-2M944 362h20m-20-16h20M964 362h20m-20-16h20M984 346h20m-20 16h2v2m18-2h-2v2M1004 362h20m-20-16h20M1024 362h20m-20-16h2v-2m18 2h-2v-2M1044 362h20m-20-16h20M1064 362h20m-20-16h20M1084 362h20m-20-16h20M1104 362h20m-20-16h20M1124 362h20m-20-16h20M1144 362h20m-20-16h2v-2m18 2h-2v-2M1164 362h20m-20-16h20M1184 346h18v16h-18M24 366H6v16h18M24 366h20m-20 16h2v2m18-2h-2v2M44 366h18v16H44M84 366H66v16h18M84 382h20m-20-16h20M104 382h20m-20-16h20M124 382h20m-20-16h2v-2m18 2h-2v-2M144 366h20m-20 16h2v2m18-2h-2v2M164 382h20m-20-16h20M184 382h20m-20-16h20M204 382h20m-20-16h20M224 366h18v16h-18M264 366h-18v16h18M264 382h20m-20-16h2v-2m18 2h-2v-2M284 382h20m-20-16h20M304 366h20m-20 16h2v2m18-2h-2v2M324 382h20m-20-16h20M344 382h20m-20-16h20M364 366h18v16h-18M386 364v18h18m0-16h-2v-2M404 366h20m-20 16h2v2m18-2h-2v2M424 366h18v16h-18M464 366h-18v16h18M464 382h20m-20-16h20M484 382h20m-20-16h20M504 382h20m-20-16h20M524 382h20m-20-16h20M544 382h20m-20-16h20M564 382h20m-20-16h20M584 382h20m-20-16h20M604 382h20m-20-16h2v-2m18 2h-2v-2M624 382h20m-20-16h20M644 366h20m-20 16h2v2m18-2h-2v2M664 382h20m-20-16h20M684 382h20m-20-16h20M704 382h20m-20-16h20M724 382h20m-20-16h20M744 382h20m-20-16h2v-2m18 2h-2v-2M764 382h20m-20-16h20M784 382h20m-20-16h2v-2m18 2h-2v-2M804 382h20m-20-16h20M824 382h20m-20-16h20M844 366h18v16h-18M884 366h-18v16h18M884 382h20m-20-16h20M904 382h20m-20-16h20M924 382h20m-20-16h20M944 382h20m-20-16h20M964 382h20m-20-16h20M984 366h2v-2m18 2h-2v-2m-18 18h2v2m18-2h-2v2M1004 382h20m-20-16h20M1024 382h20m-20-16h20M1044 382h20m-20-16h20M1064 382h20m-20-16h20M1084 382h20m-20-16h20M1104 366h18v16h-18M1126 384v-18h16v18M1146 384v-18h16v18M1166 384v-18h18m0 16h-2v2M1184 366h18v16h-18M24 386H6v16h18M24 402h20m-20-16h2v-2m18 2h-2v-2M44 386h20m-20 16h2v2m18-2h-2v2M64 402h20m-20-16h20M84 386h18v16H84M124 386h-18v16h18M124 386h20m-20 16h2v2m18-2h-2v2M144 402h18v-18m-18 2h2v-2M184 386h-18v16h18M184 402h20m-20-16h20M204 402h20m-20-16h20M224 386h20m-20 16h2v2m18-2h-2v2M244 402h20m-20-16h20M264 402h20m-20-16h20M284 386h18v16h-18M306 384v20m16-20v20M344 386h-18v16h18M344 402h20m-20-16h20M364 386h20m-20 16h2v2m18-2h-2v2M384 402h20m-20-16h20M404 402h18v-18m-18 2h2v-2M444 386h-18v16h18M444 402h20m-20-16h20M464 402h20m-20-16h20M484 402h20m-20-16h20M504 402h20m-20-16h20M524 402h20m-20-16h20M544 402h20m-20-16h20M564 402h20m-20-16h20M584 402h20m-20-16h20M604 402h20m-20-16h20M624 402h20m-20-16h20M644 402h20m-20-16h2v-2m18 2h-2v-2M664 386h20m-20 16h2v2m18-2h-2v2M684 402h20m-20-16h20M704 402h20m-20-16h20M724 402h20m-20-16h20M744 402h20m-20-16h20M764 402h20m-20-16h20M784 402h20m-20-16h20M804 402h20m-20-16h20M824 402h20m-20-16h20M844 402h20m-20-16h20M864 402h20m-20-16h20M884 402h20m-20-16h20M904 386h18v16h-18M944 386h-18v16h18M944 402h20m-20-16h20M964 402h20m-20-16h20M984 402h20m-20-16h2v-2m18 2h-2v-2M1004 402h20m-20-16h20M1024 402h20m-20-16h20M1044 386h20m-20 16h2v2m18-2h-2v2M1064 402h20m-20-16h20M1084 402h20m-20-16h20M1104 402h20m-20-16h20M1124 402h20m-20-16h2v-2m18 2h-2v-2M1144 402h20m-20-16h2v-2m18 2h-2v-2M1164 402h20m-20-16h2v-2m18 2h-2v-2M1184 386h18v16h-18M24 406H6v16h18M24 422h20m-20-16h20M44 422h20m-20-16h2v-2m18 2h-2v-2M64 406h20m-20 16h2v2m18-2h-2v2M84 422h20m-20-16h20M104 422h20m-20-16h20M124 422h18v-18m-18 2h2v-2M164 406h-18v16h18M164 422h20m-20-16h20M184 422h20m-20-16h20M204 422h20m-20-16h20M224 422h20m-20-16h2v-2m18 2h-2v-2M244 422h20m-20-16h20M264 406h20m-20 16h2v2m18-2h-2v2M284 422h20m-20-16h20M304 422h20m-20-16h2v-2m18 2h-2v-2M324 422h20m-20-16h20M344 422h20m-20-16h20M364 422h20m-20-16h2v-2m18 2h-2v-2M384 406h18v16h-18M406 424v-18h16v18M444 406h-18v16h18M444 422h20m-20-16h20M464 422h20m-20-16h20M484 422h20m-20-16h20M504 422h20m-20-16h20M524 406h20m-20 16h2v2m18-2h-2v2M544 422h20m-20-16h20M564 422h20m-20-16h20M584 422h20m-20-16h20M604 422h20m-20-16h20M624 406h18v16h-18M646 424v-18h16v18M666 404v18h18m0-16h-2v-2M684 422h20m-20-16h20M704 422h20m-20-16h20M724 422h20m-20-16h20M744 422h20m-20-16h20M764 422h20m-20-16h20M784 422h20m-20-16h20M804 422h20m-20-16h20M824 406h20m-20 16h2v2m18-2h-2v2M844 422h20m-20-16h20M864 422h20m-20-16h20M884 422h20m-20-16h20M904 422h20m-20-16h20M924 422h20m-20-16h20M944 422h20m-20-16h20M964 422h20m-20-16h20M984 406h18v16h-18M1024 406h-18v16h18M1024 406h20m-20 16h2v2m18-2h-2v2M1044 422h18v-18m-18 2h2v-2M1084 406h-18v16h18M1084 422h20m-20-16h20M1104 422h20m-20-16h20M1124 406h20m-20 16h2v2m18-2h-2v2M1144 422h20m-20-16h20M1164 422h20m-20-16h20M1184 406h18v16h-18M24 426H6v16h18M24 442h20m-20-16h20M44 426h20m-20 16h2v2m18-2h-2v2M64 442h20m-20-16h2v-2m18 2h-2v-2M84 426h18v16H84M106 444v-18h16v18M144 426h-18v16h18M144 442h20m-20-16h20M164 442h20m-20-16h20M184 442h20m-20-16h20M204 442h20m-20-16h20M224 426h20m-20 16h2v2m18-2h-2v2M244 442h20m-20-16h20M264 442h20m-20-16h2v-2m18 2h-2v-2M284 442h20m-20-16h20M304 442h20m-20-16h20M324 426h18v16h-18M346 444v-18h16v18M384 426h-18v16h18M384 442h20m-20-16h20M404 442h20m-20-16h2v-2m18 2h-2v-2M424 442h20m-20-16h20M444 426h20m-20 16h2v2m18-2h-2v2M464 442h20m-20-16h20M484 442h20m-20-16h20M504 442h20m-20-16h20M524 442h18v-18m-18 2h2v-2M564 426h-18v16h18M564 442h20m-20-16h20M584 426h20m-20 16h2v2m18-2h-2v2M604 442h20m-20-16h20M624 426h18v16h-18M646 424v20m16-20v20M666 444v-18h16v18M704 426h-18v16h18M704 442h20m-20-16h20M724 442h20m-20-16h20M744 442h20m-20-16h20M764 426h20m-20 16h2v2m18-2h-2v2M784 442h20m-20-16h20M804 442h20m-20-16h20M824 442h20m-20-16h2v-2m18 2h-2v-2M844 426h18v16h-18M884 426h-18v16h18M884 442h20m-20-16h20M904 442h20m-20-16h20M924 442h20m-20-16h20M944 442h20m-20-16h20M964 442h20m-20-16h20M984 442h20m-20-16h20M1004 442h20m-20-16h20M1024 426h2v-2m18 2h-2v-2m-18 18h2v2m18-2h-2v2M1044 442h20m-20-16h20M1064 442h20m-20-16h20M1084 442h20m-20-16h20M1104 442h20m-20-16h20M1124 442h20m-20-16h2v-2m18 2h-2v-2M1144 442h20m-20-16h20M1164 442h20m-20-16h20M1184 426h18v16h-18M24 446H6v16h18M24 462h20m-20-16h20M44 446h2v-2m18 2h-2v-2m-18 18h2v2m18-2h-2v2M64 462h20m-20-16h20M84 446h18v16H84M106 444v18h18m0-16h-2v-2M124 446h20m-20 16h2v2m18-2h-2v2M144 446h18v16h-18M166 464v-18h16v18M204 446h-18v16h18M204 462h20m-20-16h20M224 462h20m-20-16h2v-2m18 2h-2v-2M244 446h20m-20 16h2v2m18-2h-2v2M264 462h20m-20-16h20M284 462h20m-20-16h20M304 446h18v16h-18M326 464v-18h16v18M346 444v18h18m0-16h-2v-2M364 462h20m-20-16h20M384 462h20m-20-16h20M404 462h20m-20-16h20M424 462h20m-20-16h20M444 462h20m-20-16h2v-2m18 2h-2v-2M464 462h20m-20-16h20M484 462h20m-20-16h20M504 462h20m-20-16h20M524 462h20m-20-16h20M544 462h20m-20-16h20M564 446h20m-20 16h2v2m18-2h-2v2M584 462h20m-20-16h2v-2m18 2h-2v-2M604 462h20m-20-16h20M624 462h20m-20-16h20M644 462h20m-20-16h2v-2m18 2h-2v-2M664 462h20m-20-16h2v-2m18 2h-2v-2M684 462h20m-20-16h20M704 462h20m-20-16h20M724 462h20m-20-16h20M744 462h20m-20-16h20M764 462h20m-20-16h2v-2m18 2h-2v-2M784 446h18v16h-18M824 446h-18v16h18M824 462h20m-20-16h20M844 462h20m-20-16h20M864 446h20m-20 16h2v2m18-2h-2v2M884 462h20m-20-16h20M904 462h20m-20-16h20M924 446h18v16h-18M964 446h-18v16h18M964 446h20m-20 16h2v2m18-2h-2v2M984 446h18v16h-18M1006 464v-18h16v18M1026 444v18h18m0-16h-2v-2M1044 446h20m-20 16h2v2m18-2h-2v2M1064 446h18v16h-18M1104 446h-18v16h18M1104 462h20m-20-16h20M1124 446h20m-20 16h2v2m18-2h-2v2M1144 462h20m-20-16h20M1164 462h20m-20-16h20M1184 446h18v16h-18M24 466H6v16h18M24 482h20m-20-16h20M44 482h20m-20-16h2v-2m18 2h-2v-2M64 482h20m-20-16h20M84 482h20m-20-16h20M104 482h20m-20-16h20M124 482h20m-20-16h2v-2m18 2h-2v-2M144 482h20m-20-16h20M164 482h20m-20-16h2v-2m18 2h-2v-2M184 482h20m-20-16h20M204 482h20m-20-16h20M224 482h20m-20-16h20M244 466h2v-2m18 2h-2v-2m-18 18h2v2m18-2h-2v2M264 482h20m-20-16h20M284 482h20m-20-16h20M304 482h20m-20-16h20M324 482h20m-20-16h2v-2m18 2h-2v-2M344 482h20m-20-16h20M364 482h20m-20-16h20M384 482h20m-20-16h20M404 482h20m-20-16h20M424 482h20m-20-16h20M444 482h20m-20-16h20M464 482h20m-20-16h20M484 466h18v16h-18M524 466h-18v16h18M524 482h20m-20-16h20M544 482h20m-20-16h20M564 482h20m-20-16h2v-2m18 2h-2v-2M584 482h20m-20-16h20M604 482h20m-20-16h20M624 482h20m-20-16h20M644 482h20m-20-16h20M664 482h20m-20-16h20M684 482h20m-20-16h20M704 466h20m-20 16h2v2m18-2h-2v2M724 482h20m-20-16h20M744 482h20m-20-16h20M764 482h20m-20-16h20M784 482h20m-20-16h20M804 482h20m-20-16h20M824 482h20m-20-16h20M844 482h20m-20-16h20M864 482h20m-20-16h2v-2m18 2h-2v-2M884 482h20m-20-16h20M904 466h18v16h-18M944 466h-18v16h18M944 482h20m-20-16h20M964 482h20m-20-16h2v-2m18 2h-2v-2M984 482h20m-20-16h20M1004 466h2v-2m18 2h-2v-2m-18 18h2v2m18-2h-2v2M1024 482h20m-20-16h20M1044 482h20m-20-16h2v-2m18 2h-2v-2M1064 482h20m-20-16h20M1084 466h18v16h-18M1124 466h-18v16h18M1124 482h20m-20-16h2v-2m18 2h-2v-2M1144 466h20m-20 16h2v2m18-2h-2v2M1164 482h20m-20-16h20M1184 466h18v16h-18M24 486H6v16h18M24 502h20m-20-16h20M44 502h20m-20-16h20M64 502h20m-20-16h20M84 502h20m-20-16h20M104 486h20m-20 16h2v2m18-2h-2v2M124 502h20m-20-16h20M144 502h20m-20-16h20M164 502h20m-20-16h20M184 502h20m-20-16h20M204 486h18v16h-18M226 504v-18h16v18M246 484v18h18m0-16h-2v-2M264 486h20m-20 16h2v2m18-2h-2v2M284 486h18v16h-18M324 486h-18v16h18M324 502h20m-20-16h20M344 502h20m-20-16h20M364 502h20m-20-16h20M384 502h20m-20-16h20M404 486h20m-20 16h2v2m18-2h-2v2M424 502h20m-20-16h20M444 502h20m-20-16h20M464 502h20m-20-16h20M484 502h20m-20-16h20M504 486h18v16h-18M544 486h-18v16h18M544 502h20m-20-16h20M564 502h20m-20-16h20M584 502h20m-20-16h20M604 502h20m-20-16h20M624 502h20m-20-16h20M644 486h20m-20 16h2v2m18-2h-2v2M664 502h20m-20-16h20M684 502h20m-20-16h20M704 502h20m-20-16h2v-2m18 2h-2v-2M724 502h20m-20-16h20M744 502h20m-20-16h20M764 486h18v16h-18M804 486h-18v16h18M804 486h20m-20 16h2v2m18-2h-2v2M824 486h18v16h-18M864 486h-18v16h18M864 486h20m-20 16h2v2m18-2h-2v2M884 486h18v16h-18M906 504v-18h16v18M944 486h-18v16h18M944 486h20m-20 16h2v2m18-2h-2v2M964 486h18v16h-18M986 504v-18h16v18M1006 484v20m16-20v20M1044 486h-18v16h18M1044 502h20m-20-16h20M1064 486h20m-20 16h2v2m18-2h-2v2M1084 502h20m-20-16h20M1104 486h18v16h-18M1126 504v-18h16v18M1146 484v20m16-20v20M1166 504v-18h18m0 16h-2v2M1184 486h18v16h-18M24 506H6v16h18M24 522h20m-20-16h20M44 506h20m-20 16h2v2m18-2h-2v2M64 522h20m-20-16h20M84 506h18v16H84M106 504v20m16-20v20M126 524v-18h16v18M164 506h-18v16h18M164 506h20m-20 16h2v2m18-2h-2v2M184 506h18v16h-18M206 524v-18h16v18M226 504v18h18m0-16h-2v-2M244 522h20m-20-16h20M264 522h20m-20-16h2v-2m18 2h-2v-2M284 522h20m-20-16h20M304 506h20m-20 16h2v2m18-2h-2v2M324 522h20m-20-16h20M344 522h20m-20-16h20M364 522h20m-20-16h20M384 506h18v16h-18M406 504v18h18m0-16h-2v-2M424 506h20m-20 16h2v2m18-2h-2v2M444 506h18v16h-18M484 506h-18v16h18M484 522h20m-20-16h20M504 522h20m-20-16h20M524 522h20m-20-16h20M544 522h20m-20-16h20M564 522h20m-20-16h20M584 522h20m-20-16h20M604 506h20m-20 16h2v2m18-2h-2v2M624 522h20m-20-16h20M644 522h20m-20-16h2v-2m18 2h-2v-2M664 522h20m-20-16h20M684 522h20m-20-16h20M704 522h20m-20-16h20M724 522h20m-20-16h20M744 506h18v16h-18M766 524v-18h16v18M804 506h-18v16h18M804 522h20m-20-16h2v-2m18 2h-2v-2M824 522h20m-20-16h20M844 522h20m-20-16h20M864 522h20m-20-16h2v-2m18 2h-2v-2M884 522h20m-20-16h20M904 522h20m-20-16h2v-2m18 2h-2v-2M924 522h20m-20-16h20M944 522h20m-20-16h2v-2m18 2h-2v-2M964 522h20m-20-16h20M984 506h2v-2m18 2h-2v-2m-18 18h2v2m18-2h-2v2M1004 522h20m-20-16h2v-2m18 2h-2v-2M1024 522h20m-20-16h20M1044 522h20m-20-16h20M1064 522h20m-20-16h2v-2m18 2h-2v-2M1084 522h20m-20-16h20M1104 522h20m-20-16h20M1124 522h20m-20-16h2v-2m18 2h-2v-2M1144 522h20m-20-16h2v-2m18 2h-2v-2M1164 522h20m-20-16h2v-2m18 2h-2v-2M1184 506h18v16h-18M6 544v-18h16v18M44 526H26v16h18M44 542h20m-20-16h2v-2m18 2h-2v-2M64 542h20m-20-16h20M84 542h20m-20-16h20M104 542h20m-20-16h2v-2m18 2h-2v-2M124 526h2v-2m18 2h-2v-2m-18 18h2v2m18-2h-2v2M144 542h20m-20-16h20M164 542h20m-20-16h2v-2m18 2h-2v-2M184 542h20m-20-16h20M204 542h20m-20-16h2v-2m18 2h-2v-2M224 526h18v16h-18M264 526h-18v16h18M264 526h20m-20 16h2v2m18-2h-2v2M284 526h18v16h-18M306 524v18h18m0-16h-2v-2M324 542h20m-20-16h20M344 526h20m-20 16h2v2m18-2h-2v2M364 542h20m-20-16h20M384 526h18v16h-18M424 526h-18v16h18M424 542h20m-20-16h2v-2m18 2h-2v-2M444 526h20m-20 16h2v2m18-2h-2v2M464 542h20m-20-16h20M484 526h18v16h-18M524 526h-18v16h18M524 542h20m-20-16h20M544 542h20m-20-16h20M564 542h20m-20-16h20M584 542h20m-20-16h20M604 542h20m-20-16h2v-2m18 2h-2v-2M624 542h20m-20-16h20M644 542h20m-20-16h20M664 526h20m-20 16h2v2m18-2h-2v2M684 542h20m-20-16h20M704 542h20m-20-16h20M724 542h20m-20-16h20M744 542h20m-20-16h20M764 542h20m-20-16h2v-2m18 2h-2v-2M784 542h20m-20-16h20M804 542h20m-20-16h20M824 526h18v16h-18M846 544v-18h16v18M866 544v-18h16v18M904 526h-18v16h18M904 542h20m-20-16h20M924 542h20m-20-16h20M944 542h20m-20-16h20M964 526h20m-20 16h2v2m18-2h-2v2M984 542h20m-20-16h2v-2m18 2h-2v-2M1004 542h20m-20-16h20M1024 542h20m-20-16h20M1044 526h18v16h-18M1084 526h-18v16h18M1084 542h20m-20-16h20M1104 542h20m-20-16h20M1124 526h20m-20 16h2v2m18-2h-2v2M1144 542h20m-20-16h20M1164 542h20m-20-16h20M1184 526h18v16h-18M6 544v18h18m0-16h-2v-2M24 562h20m-20-16h20M44 562h20m-20-16h20M64 562h20m-20-16h20M84 562h20m-20-16h20M104 562h20m-20-16h20M124 562h20m-20-16h2v-2m18 2h-2v-2M144 562h20m-20-16h20M164 562h20m-20-16h20M184 562h20m-20-16h20M204 562h20m-20-16h20M224 562h20m-20-16h20M244 562h20m-20-16h20M264 562h20m-20-16h2v-2m18 2h-2v-2M284 546h20m-20 16h2v2m18-2h-2v2M304 562h20m-20-16h20M324 562h20m-20-16h20M344 562h20m-20-16h2v-2m18 2h-2v-2M364 562h20m-20-16h20M384 562h20m-20-16h20M404 562h20m-20-16h20M424 562h20m-20-16h20M444 562h20m-20-16h2v-2m18 2h-2v-2M464 562h20m-20-16h20M484 562h20m-20-16h20M504 562h20m-20-16h20M524 562h20m-20-16h20M544 562h20m-20-16h20M564 546h18v16h-18M604 546h-18v16h18M604 562h20m-20-16h20M624 562h20m-20-16h20M644 562h20m-20-16h20M664 562h20m-20-16h2v-2m18 2h-2v-2M684 562h20m-20-16h20M704 562h20m-20-16h20M724 546h20m-20 16h2v2m18-2h-2v2M744 562h20m-20-16h20M764 562h20m-20-16h20M784 562h20m-20-16h20M804 562h20m-20-16h20M824 562h20m-20-16h20M844 562h20m-20-16h2v-2m18 2h-2v-2M864 562h18v-18m-18 2h2v-2M904 546h-18v16h18M904 546h20m-20 16h2v2m18-2h-2v2M924 546h18v16h-18M964 546h-18v16h18M964 562h20m-20-16h2v-2m18 2h-2v-2M984 562h20m-20-16h20M1004 562h20m-20-16h20M1024 562h20m-20-16h20M1044 562h20m-20-16h20M1064 546h20m-20 16h2v2m18-2h-2v2M1084 562h20m-20-16h20M1104 562h20m-20-16h20M1124 562h20m-20-16h2v-2m18 2h-2v-2M1144 562h20m-20-16h20M1164 562h20m-20-16h20M1184 546h18v16h-18M24 566H6v16h18M24 582h20m-20-16h20M44 582h20m-20-16h20M64 582h20m-20-16h20M84 582h20m-20-16h20M104 582h20m-20-16h20M124 582h20m-20-16h20M144 566h20m-20 16h2v2m18-2h-2v2M164 582h20m-20-16h20M184 582h20m-20-16h20M204 582h20m-20-16h20M224 582h20m-20-16h20M244 582h20m-20-16h20M264 582h20m-20-16h20M284 582h18v-18m-18 2h2v-2M324 566h-18v16h18M324 566h20m-20 16h2v2m18-2h-2v2M344 566h18v16h-18M366 584v-18h16v18M386 584v-18h16v18M424 566h-18v16h18M424 566h20m-20 16h2v2m18-2h-2v2M444 566h18v16h-18M484 566h-18v16h18M484 582h20m-20-16h20M504 582h20m-20-16h20M524 566h20m-20 16h2v2m18-2h-2v2M544 582h20m-20-16h20M564 582h20m-20-16h20M584 566h18v16h-18M624 566h-18v16h18M624 566h20m-20 16h2v2m18-2h-2v2M644 566h18v16h-18M684 566h-18v16h18M684 566h20m-20 16h2v2m18-2h-2v2M704 566h18v16h-18M726 564v18h18m0-16h-2v-2M744 582h20m-20-16h20M764 582h20m-20-16h20M784 582h20m-20-16h20M804 582h20m-20-16h20M824 582h20m-20-16h20M844 582h20m-20-16h20M864 566h20m-20 16h2v2m18-2h-2v2M884 582h20m-20-16h20M904 582h20m-20-16h2v-2m18 2h-2v-2M924 582h20m-20-16h20M944 582h20m-20-16h20M964 582h20m-20-16h20M984 582h20m-20-16h20M1004 566h18v16h-18M1044 566h-18v16h18M1044 582h20m-20-16h20M1064 582h20m-20-16h2v-2m18 2h-2v-2M1084 582h20m-20-16h20M1104 566h20m-20 16h2v2m18-2h-2v2M1124 582h20m-20-16h20M1144 582h20m-20-16h20M1164 582h20m-20-16h20M1184 566h18v16h-18M6 604v-18h16v18M44 586H26v16h18M44 602h20m-20-16h20M64 586h20m-20 16h2v2m18-2h-2v2M84 602h20m-20-16h20M104 586h18v16h-18M144 586h-18v16h18M144 602h20m-20-16h2v-2m18 2h-2v-2M164 602h20m-20-16h20M184 586h20m-20 16h2v2m18-2h-2v2M204 602h20m-20-16h20M224 602h20m-20-16h20M244 586h18v16h-18M284 586h-18v16h18M284 602h20m-20-16h20M304 602h20m-20-16h20M324 602h20m-20-16h2v-2m18 2h-2v-2M344 586h20m-20 16h2v2m18-2h-2v2M364 602h20m-20-16h2v-2m18 2h-2v-2M384 602h20m-20-16h2v-2m18 2h-2v-2M404 602h20m-20-16h20M424 602h18v-18m-18 2h2v-2M464 586h-18v16h18M464 602h20m-20-16h20M484 602h20m-20-16h20M504 602h20m-20-16h20M524 602h20m-20-16h2v-2m18 2h-2v-2M544 602h20m-20-16h20M564 602h20m-20-16h20M584 602h20m-20-16h20M604 586h20m-20 16h2v2m18-2h-2v2M624 602h20m-20-16h2v-2m18 2h-2v-2M644 602h20m-20-16h20M664 602h20m-20-16h20M684 602h20m-20-16h2v-2m18 2h-2v-2M704 602h20m-20-16h20M724 602h20m-20-16h20M744 602h20m-20-16h20M764 586h18v16h-18M804 586h-18v16h18M804 602h20m-20-16h20M824 586h20m-20 16h2v2m18-2h-2v2M844 602h20m-20-16h20M864 602h18v-18m-18 2h2v-2M904 586h-18v16h18M904 602h20m-20-16h20M924 586h20m-20 16h2v2m18-2h-2v2M944 602h20m-20-16h20M964 586h18v16h-18M1004 586h-18v16h18M1004 602h20m-20-16h20M1024 602h20m-20-16h20M1044 602h20m-20-16h20M1064 602h20m-20-16h20M1084 586h20m-20 16h2v2m18-2h-2v2M1104 602h20m-20-16h2v-2m18 2h-2v-2M1124 602h20m-20-16h20M1144 602h20m-20-16h20M1164 602h20m-20-16h20M1184 586h18v16h-18M6 604v18h18m0-16h-2v-2M24 622h20m-20-16h20M44 622h20m-20-16h20M64 606h2v-2m18 2h-2v-2m-18 18h2v2m18-2h-2v2M84 622h20m-20-16h20M104 622h20m-20-16h20M124 606h18v16h-18M164 606h-18v16h18M164 622h20m-20-16h20M184 622h20m-20-16h2v-2m18 2h-2v-2M204 606h20m-20 16h2v2m18-2h-2v2M224 622h20m-20-16h20M244 622h20m-20-16h20M264 606h18v16h-18M286 624v-18h16v18M324 606h-18v16h18M324 622h20m-20-16h20M344 622h20m-20-16h2v-2m18 2h-2v-2M364 606h20m-20 16h2v2m18-2h-2v2M384 622h20m-20-16h20M404 622h20m-20-16h20M424 606h18v16h-18M446 624v-18h16v18M484 606h-18v16h18M484 606h20m-20 16h2v2m18-2h-2v2M504 606h18v16h-18M526 624v-18h16v18M564 606h-18v16h18M564 622h20m-20-16h20M584 622h20m-20-16h20M604 622h20m-20-16h2v-2m18 2h-2v-2M624 622h20m-20-16h20M644 606h20m-20 16h2v2m18-2h-2v2M664 622h20m-20-16h20M684 622h20m-20-16h20M704 622h20m-20-16h20M724 622h20m-20-16h20M744 606h18v16h-18M784 606h-18v16h18M784 622h20m-20-16h20M804 606h20m-20 16h2v2m18-2h-2v2M824 622h20m-20-16h2v-2m18 2h-2v-2M844 606h18v16h-18M866 624v-18h16v18M904 606h-18v16h18M904 622h20m-20-16h20M924 622h20m-20-16h2v-2m18 2h-2v-2M944 622h20m-20-16h20M964 622h20m-20-16h20M984 606h20m-20 16h2v2m18-2h-2v2M1004 622h20m-20-16h20M1024 622h20m-20-16h20M1044 622h20m-20-16h20M1064 622h20m-20-16h20M1084 622h18v-18m-18 2h2v-2M1124 606h-18v16h18M1124 622h20m-20-16h20M1144 606h20m-20 16h2v2m18-2h-2v2M1164 622h20m-20-16h20M1184 606h18v16h-18M6 644v-18h16v18M44 626H26v16h18M44 626h20m-20 16h2v2m18-2h-2v2M64 642h18v-18m-18 2h2v-2M104 626H86v16h18M104 642h20m-20-16h20M124 642h20m-20-16h20M144 642h20m-20-16h20M164 642h20m-20-16h20M184 642h20m-20-16h20M204 626h2v-2m18 2h-2v-2m-18 18h2v2m18-2h-2v2M224 642h20m-20-16h20M244 642h20m-20-16h20M264 642h20m-20-16h20M284 642h20m-20-16h2v-2m18 2h-2v-2M304 642h20m-20-16h20M324 626h18v16h-18M364 626h-18v16h18M364 642h20m-20-16h2v-2m18 2h-2v-2M384 642h20m-20-16h20M404 642h20m-20-16h20M424 642h20m-20-16h20M444 642h20m-20-16h2v-2m18 2h-2v-2M464 642h20m-20-16h20M484 642h20m-20-16h2v-2m18 2h-2v-2M504 642h20m-20-16h20M524 626h2v-2m18 2h-2v-2m-18 18h2v2m18-2h-2v2M544 642h20m-20-16h20M564 642h20m-20-16h20M584 642h20m-20-16h20M604 642h20m-20-16h20M624 642h20m-20-16h20M644 642h20m-20-16h2v-2m18 2h-2v-2M664 642h20m-20-16h20M684 642h20m-20-16h20M704 626h18v16h-18M744 626h-18v16h18M744 626h20m-20 16h2v2m18-2h-2v2M764 626h18v16h-18M804 626h-18v16h18M804 642h20m-20-16h2v-2m18 2h-2v-2M824 642h20m-20-16h20M844 642h20m-20-16h20M864 642h20m-20-16h2v-2m18 2h-2v-2M884 642h20m-20-16h20M904 626h20m-20 16h2v2m18-2h-2v2M924 642h20m-20-16h20M944 642h20m-20-16h20M964 642h20m-20-16h20M984 642h20m-20-16h2v-2m18 2h-2v-2M1004 642h20m-20-16h20M1024 626h18v16h-18M1046 644v-18h16v18M1084 626h-18v16h18M1084 642h20m-20-16h20M1104 642h20m-20-16h20M1124 626h20m-20 16h2v2m18-2h-2v2M1144 642h20m-20-16h2v-2m18 2h-2v-2M1164 642h20m-20-16h20M1184 626h18v16h-18M6 644v20m16-20v20M44 646H26v16h18M44 646h2v-2m18 2h-2v-2m-18 18h2v2m18-2h-2v2M64 646h18v16H64M104 646H86v16h18M104 662h20m-20-16h20M124 662h20m-20-16h20M144 662h20m-20-16h20M164 662h20m-20-16h20M184 662h20m-20-16h20M204 662h20m-20-16h2v-2m18 2h-2v-2M224 646h20m-20 16h2v2m18-2h-2v2M244 662h20m-20-16h20M264 662h20m-20-16h20M284 662h20m-20-16h20M304 662h20m-20-16h20M324 662h20m-20-16h20M344 662h20m-20-16h20M364 646h18v16h-18M386 664v-18h16v18M424 646h-18v16h18M424 662h20m-20-16h20M444 646h20m-20 16h2v2m18-2h-2v2M464 662h20m-20-16h20M484 646h18v16h-18M524 646h-18v16h18M524 662h20m-20-16h2v-2m18 2h-2v-2M544 662h20m-20-16h20M564 662h20m-20-16h20M584 662h20m-20-16h20M604 662h20m-20-16h20M624 662h20m-20-16h20M644 662h20m-20-16h20M664 662h20m-20-16h20M684 662h20m-20-16h20M704 662h20m-20-16h20M724 662h20m-20-16h20M744 662h20m-20-16h2v-2m18 2h-2v-2M764 662h20m-20-16h20M784 662h20m-20-16h20M804 646h20m-20 16h2v2m18-2h-2v2M824 662h20m-20-16h20M844 662h20m-20-16h20M864 662h20m-20-16h20M884 662h20m-20-16h20M904 662h20m-20-16h2v-2m18 2h-2v-2M924 662h20m-20-16h20M944 662h20m-20-16h20M964 662h20m-20-16h20M984 662h20m-20-16h20M1004 662h20m-20-16h20M1024 662h20m-20-16h20M1044 662h20m-20-16h2v-2m18 2h-2v-2M1064 662h20m-20-16h20M1084 662h20m-20-16h20M1104 646h18v16h-18M1126 644v18h18m0-16h-2v-2M1144 646h20m-20 16h2v2m18-2h-2v2M1164 646h18v16h-18M1186 664v-18h16v18M6 664v18h18m0-16h-2v-2M24 682h20m-20-16h20M44 682h20m-20-16h2v-2m18 2h-2v-2M64 682h20m-20-16h20M84 682h20m-20-16h20M104 666h20m-20 16h2v2m18-2h-2v2M124 682h20m-20-16h20M144 682h20m-20-16h20M164 682h20m-20-16h20M184 682h20m-20-16h20M204 666h18v16h-18M226 664v18h18m0-16h-2v-2M244 666h20m-20 16h2v2m18-2h-2v2M264 666h18v16h-18M304 666h-18v16h18M304 682h20m-20-16h20M324 682h20m-20-16h20M344 666h20m-20 16h2v2m18-2h-2v2M364 682h20m-20-16h20M384 682h20m-20-16h2v-2m18 2h-2v-2M404 666h18v16h-18M444 666h-18v16h18M444 666h2v-2m18 2h-2v-2m-18 18h2v2m18-2h-2v2M464 666h18v16h-18M504 666h-18v16h18M504 682h20m-20-16h20M524 666h20m-20 16h2v2m18-2h-2v2M544 682h20m-20-16h20M564 666h18v16h-18M604 666h-18v16h18M604 682h20m-20-16h20M624 682h20m-20-16h20M644 682h20m-20-16h20M664 682h20m-20-16h20M684 682h20m-20-16h20M704 682h20m-20-16h20M724 666h20m-20 16h2v2m18-2h-2v2M744 682h20m-20-16h20M764 682h20m-20-16h20M784 682h20m-20-16h20M804 682h20m-20-16h2v-2m18 2h-2v-2M824 682h20m-20-16h20M844 682h20m-20-16h20M864 666h18v16h-18M886 684v-18h16v18M906 684v-18h16v18M944 666h-18v16h18M944 666h20m-20 16h2v2m18-2h-2v2M964 666h18v16h-18M1004 666h-18v16h18M1004 682h20m-20-16h20M1024 682h20m-20-16h20M1044 682h20m-20-16h20M1064 682h20m-20-16h20M1084 666h20m-20 16h2v2m18-2h-2v2M1104 682h20m-20-16h20M1124 682h20m-20-16h20M1144 682h20m-20-16h2v-2m18 2h-2v-2M1164 682h20m-20-16h20M1184 682h18v-18m-18 2h2v-2M24 686H6v16h18M24 702h20m-20-16h20M44 686h20m-20 16h2v2m18-2h-2v2M64 702h20m-20-16h20M84 686h18v16H84M106 684v18h18m0-16h-2v-2M124 686h20m-20 16h2v2m18-2h-2v2M144 686h18v16h-18M184 686h-18v16h18M184 702h20m-20-16h20M204 702h20m-20-16h20M224 702h20m-20-16h20M244 702h20m-20-16h2v-2m18 2h-2v-2M264 686h20m-20 16h2v2m18-2h-2v2M284 702h20m-20-16h20M304 702h20m-20-16h20M324 702h20m-20-16h20M344 702h20m-20-16h2v-2m18 2h-2v-2M364 686h18v16h-18M404 686h-18v16h18M404 702h20m-20-16h20M424 686h20m-20 16h2v2m18-2h-2v2M444 702h20m-20-16h2v-2m18 2h-2v-2M464 686h18v16h-18M504 686h-18v16h18M504 702h20m-20-16h20M524 702h20m-20-16h2v-2m18 2h-2v-2M544 702h20m-20-16h20M564 702h20m-20-16h20M584 702h20m-20-16h20M604 686h20m-20 16h2v2m18-2h-2v2M624 702h20m-20-16h20M644 702h20m-20-16h20M664 702h20m-20-16h20M684 702h20m-20-16h20M704 702h20m-20-16h20M724 702h18v-18m-18 2h2v-2M764 686h-18v16h18M764 702h20m-20-16h20M784 702h20m-20-16h20M804 702h20m-20-16h20M824 702h20m-20-16h20M844 702h20m-20-16h20M864 686h20m-20 16h2v2m18-2h-2v2M884 702h20m-20-16h2v-2m18 2h-2v-2M904 702h20m-20-16h2v-2m18 2h-2v-2M924 702h20m-20-16h20M944 702h20m-20-16h2v-2m18 2h-2v-2M964 702h20m-20-16h20M984 686h18v16h-18M1024 686h-18v16h18M1024 686h20m-20 16h2v2m18-2h-2v2M1044 686h18v16h-18M1084 686h-18v16h18M1084 702h20m-20-16h2v-2m18 2h-2v-2M1104 702h20m-20-16h20M1124 686h20m-20 16h2v2m18-2h-2v2M1144 702h20m-20-16h20M1164 702h20m-20-16h20M1184 686h18v16h-18M24 706H6v16h18M24 722h20m-20-16h20M44 722h20m-20-16h2v-2m18 2h-2v-2M64 706h20m-20 16h2v2m18-2h-2v2M84 722h20m-20-16h20M104 722h20m-20-16h20M124 722h18v-18m-18 2h2v-2M146 724v-18h16v18M184 706h-18v16h18M184 722h20m-20-16h20M204 722h20m-20-16h20M224 722h20m-20-16h20M244 722h20m-20-16h20M264 722h20m-20-16h2v-2m18 2h-2v-2M284 706h20m-20 16h2v2m18-2h-2v2M304 722h20m-20-16h20M324 722h20m-20-16h20M344 722h20m-20-16h20M364 722h20m-20-16h20M384 722h20m-20-16h20M404 706h18v16h-18M426 704v18h18m0-16h-2v-2M444 722h20m-20-16h20M464 722h20m-20-16h20M484 722h20m-20-16h20M504 722h20m-20-16h20M524 706h20m-20 16h2v2m18-2h-2v2M544 722h20m-20-16h20M564 722h20m-20-16h20M584 722h20m-20-16h20M604 722h20m-20-16h2v-2m18 2h-2v-2M624 706h18v16h-18M664 706h-18v16h18M664 722h20m-20-16h20M684 706h20m-20 16h2v2m18-2h-2v2M704 722h20m-20-16h20M724 706h18v16h-18M764 706h-18v16h18M764 706h20m-20 16h2v2m18-2h-2v2M784 706h18v16h-18M824 706h-18v16h18M824 706h20m-20 16h2v2m18-2h-2v2M844 706h18v16h-18M866 704v18h18m0-16h-2v-2M884 706h20m-20 16h2v2m18-2h-2v2M904 706h18v16h-18M944 706h-18v16h18M944 706h20m-20 16h2v2m18-2h-2v2M964 706h18v16h-18M1004 706h-18v16h18M1004 722h20m-20-16h20M1024 722h20m-20-16h2v-2m18 2h-2v-2M1044 722h20m-20-16h20M1064 722h20m-20-16h20M1084 706h20m-20 16h2v2m18-2h-2v2M1104 722h20m-20-16h20M1124 722h20m-20-16h2v-2m18 2h-2v-2M1144 722h20m-20-16h20M1164 722h20m-20-16h20M1184 706h18v16h-18M24 726H6v16h18M24 726h20m-20 16h2v2m18-2h-2v2M44 726h18v16H44M66 724v18h18m0-16h-2v-2M84 726h20m-20 16h2v2m18-2h-2v2M104 726h18v16h-18M144 726h-18v16h18M144 726h2v-2m18 2h-2v-2m-18 18h2v2m18-2h-2v2M164 726h18v16h-18M204 726h-18v16h18M204 742h20m-20-16h20M224 742h20m-20-16h20M244 742h20m-20-16h20M264 742h20m-20-16h20M284 742h20m-20-16h2v-2m18 2h-2v-2M304 742h20m-20-16h20M324 726h20m-20 16h2v2m18-2h-2v2M344 742h20m-20-16h20M364 742h20m-20-16h20M384 742h20m-20-16h20M404 742h20m-20-16h20M424 742h20m-20-16h20M444 742h20m-20-16h20M464 726h18v16h-18M504 726h-18v16h18M504 726h20m-20 16h2v2m18-2h-2v2M524 742h18v-18m-18 2h2v-2M564 726h-18v16h18M564 742h20m-20-16h20M584 726h20m-20 16h2v2m18-2h-2v2M604 742h20m-20-16h20M624 726h18v16h-18M664 726h-18v16h18M664 742h20m-20-16h20M684 726h2v-2m18 2h-2v-2m-18 18h2v2m18-2h-2v2M704 742h20m-20-16h20M724 726h18v16h-18M764 726h-18v16h18M764 726h2v-2m18 2h-2v-2m-18 18h2v2m18-2h-2v2M784 726h18v16h-18M824 726h-18v16h18M824 726h2v-2m18 2h-2v-2m-18 18h2v2m18-2h-2v2M844 726h18v16h-18M884 726h-18v16h18M884 742h20m-20-16h2v-2m18 2h-2v-2M904 742h20m-20-16h20M924 742h20m-20-16h20M944 742h20m-20-16h2v-2m18 2h-2v-2M964 742h20m-20-16h20M984 726h20m-20 16h2v2m18-2h-2v2M1004 742h20m-20-16h20M1024 742h20m-20-16h20M1044 742h20m-20-16h20M1064 742h20m-20-16h20M1084 742h20m-20-16h2v-2m18 2h-2v-2M1104 726h18v16h-18M1144 726h-18v16h18M1144 726h20m-20 16h2v2m18-2h-2v2M1164 726h18v16h-18M1186 744v-18h16v18M6 764v-18h16v18M26 744v18h18m0-16h-2v-2M44 762h20m-20-16h20M64 762h20m-20-16h20M84 762h20m-20-16h2v-2m18 2h-2v-2M104 762h20m-20-16h20M124 746h20m-20 16h2v2m18-2h-2v2M144 762h20m-20-16h2v-2m18 2h-2v-2M164 762h20m-20-16h20M184 762h20m-20-16h20M204 762h20m-20-16h20M224 746h18v16h-18M264 746h-18v16h18M264 762h20m-20-16h20M284 746h20m-20 16h2v2m18-2h-2v2M304 762h20m-20-16h20M324 762h18v-18m-18 2h2v-2M364 746h-18v16h18M364 746h20m-20 16h2v2m18-2h-2v2M384 746h18v16h-18M424 746h-18v16h18M424 762h20m-20-16h20M444 746h20m-20 16h2v2m18-2h-2v2M464 762h20m-20-16h20M484 746h18v16h-18M506 744v18h18m0-16h-2v-2M524 762h20m-20-16h20M544 762h20m-20-16h20M564 746h20m-20 16h2v2m18-2h-2v2M584 762h20m-20-16h2v-2m18 2h-2v-2M604 762h20m-20-16h20M624 746h18v16h-18M664 746h-18v16h18M664 762h20m-20-16h20M684 762h20m-20-16h2v-2m18 2h-2v-2M704 746h20m-20 16h2v2m18-2h-2v2M724 762h20m-20-16h20M744 762h20m-20-16h20M764 762h18v-18m-18 2h2v-2M804 746h-18v16h18M804 762h20m-20-16h20M824 762h20m-20-16h2v-2m18 2h-2v-2M844 762h20m-20-16h20M864 746h20m-20 16h2v2m18-2h-2v2M884 762h20m-20-16h20M904 762h20m-20-16h20M924 762h20m-20-16h20M944 746h18v16h-18M966 764v-18h16v18M986 744v18h18m0-16h-2v-2M1004 762h20m-20-16h20M1024 762h20m-20-16h20M1044 762h20m-20-16h20M1064 762h20m-20-16h20M1084 746h20m-20 16h2v2m18-2h-2v2M1104 762h20m-20-16h20M1124 762h20m-20-16h20M1144 762h20m-20-16h2v-2m18 2h-2v-2M1164 762h20m-20-16h20M1184 762h18v-18m-18 2h2v-2M6 764v18h18m0-16h-2v-2M24 782h20m-20-16h20M44 766h20m-20 16h2v2m18-2h-2v2M64 782h20m-20-16h20M84 766h18v16H84M124 766h-18v16h18M124 782h20m-20-16h2v-2m18 2h-2v-2M144 782h20m-20-16h20M164 782h20m-20-16h20M184 782h20m-20-16h20M204 782h20m-20-16h20M224 766h20m-20 16h2v2m18-2h-2v2M244 782h20m-20-16h20M264 782h20m-20-16h20M284 782h20m-20-16h2v-2m18 2h-2v-2M304 782h20m-20-16h20M324 782h20m-20-16h20M344 766h18v16h-18M366 764v18h18m0-16h-2v-2M384 766h20m-20 16h2v2m18-2h-2v2M404 766h18v16h-18M426 784v-18h16v18M446 764v18h18m0-16h-2v-2M464 782h20m-20-16h20M484 782h20m-20-16h20M504 766h20m-20 16h2v2m18-2h-2v2M524 782h20m-20-16h20M544 782h20m-20-16h20M564 782h18v-18m-18 2h2v-2M586 784v-18h16v18M606 784v-18h16v18M626 784v-18h16v18M664 766h-18v16h18M664 766h20m-20 16h2v2m18-2h-2v2M684 766h18v16h-18M706 764v20m16-20v20M744 766h-18v16h18M744 782h20m-20-16h20M764 782h20m-20-16h20M784 782h20m-20-16h20M804 766h20m-20 16h2v2m18-2h-2v2M824 782h20m-20-16h20M844 782h20m-20-16h20M864 782h20m-20-16h2v-2m18 2h-2v-2M884 766h18v16h-18M906 784v-18h16v18M944 766h-18v16h18M944 782h20m-20-16h20M964 782h20m-20-16h2v-2m18 2h-2v-2M984 782h20m-20-16h20M1004 782h20m-20-16h20M1024 782h20m-20-16h20M1044 766h20m-20 16h2v2m18-2h-2v2M1064 782h20m-20-16h20M1084 782h20m-20-16h2v-2m18 2h-2v-2M1104 782h20m-20-16h20M1124 782h20m-20-16h20M1144 782h20m-20-16h20M1164 782h20m-20-16h20M1184 766h18v16h-18M24 786H6v16h18M24 802h20m-20-16h20M44 802h20m-20-16h2v-2m18 2h-2v-2M64 802h20m-20-16h20M84 802h20m-20-16h20M104 802h20m-20-16h20M124 802h20m-20-16h20M144 802h20m-20-16h20M164 802h20m-20-16h20M184 802h20m-20-16h20M204 802h20m-20-16h20M224 802h20m-20-16h2v-2m18 2h-2v-2M244 802h20m-20-16h20M264 802h20m-20-16h20M284 802h20m-20-16h20M304 802h20m-20-16h20M324 802h20m-20-16h20M344 802h20m-20-16h20M364 802h20m-20-16h20M384 802h20m-20-16h2v-2m18 2h-2v-2M404 802h20m-20-16h20M424 802h20m-20-16h2v-2m18 2h-2v-2M444 802h20m-20-16h20M464 802h20m-20-16h20M484 802h20m-20-16h20M504 802h20m-20-16h2v-2m18 2h-2v-2M524 802h20m-20-16h20M544 802h20m-20-16h20M564 802h20m-20-16h20M584 802h20m-20-16h2v-2m18 2h-2v-2M604 802h20m-20-16h2v-2m18 2h-2v-2M624 802h20m-20-16h2v-2m18 2h-2v-2M644 802h20m-20-16h20M664 802h20m-20-16h2v-2m18 2h-2v-2M684 802h20m-20-16h20M704 802h20m-20-16h2v-2m18 2h-2v-2M724 802h20m-20-16h20M744 802h20m-20-16h20M764 802h20m-20-16h20M784 802h20m-20-16h20M804 802h20m-20-16h2v-2m18 2h-2v-2M824 802h20m-20-16h20M844 802h20m-20-16h20M864 802h20m-20-16h20M884 802h20m-20-16h20M904 802h20m-20-16h2v-2m18 2h-2v-2M924 802h20m-20-16h20M944 802h20m-20-16h20M964 802h20m-20-16h20M984 802h20m-20-16h20M1004 802h20m-20-16h20M1024 802h20m-20-16h20M1044 802h20m-20-16h2v-2m18 2h-2v-2M1064 802h20m-20-16h20M1084 802h20m-20-16h20M1104 802h20m-20-16h20M1124 802h20m-20-16h20M1144 802h20m-20-16h20M1164 802h20m-20-16h20M1184 786h18v16h-18"/></svg>