<svg xmlns="http://www.w3.org/2000/svg" width="248" height="848"><style>path{fill:none;stroke:#000;stroke-width:1;stroke-linejoin:round}</style><path stroke="#000" d="M1 1h122v422H1z" style="fill:#f8f8ff" transform="scale(2)"/><path stroke-width="2" d="M24 6H6v16h18M24 6h18v18m-18-2h2v2M46 24V6h18m0 16h-2v2M64 6h18v16H64M86 24V6h18m0 16h-2v2M104 6h18v16h-18M144 6h-18v16h18M144 6h18v18m-18-2h2v2M166 24V6h18m0 16h-2v2M184 6h18v16h-18M206 24V6h18m0 16h-2v2M224 6h18v16h-18M6 44V26h18m0 16h-2v2M24 42h18V24m-18 2h2v-2M46 24v18h18m0-16h-2v-2M64 26h18v18m-18-2h2v2M86 24v18h18m0-16h-2v-2M104 26h18v18m-18-2h2v2M126 44V26h18m0 16h-2v2M144 42h18V24m-18 2h2v-2M166 24v18h18m0-16h-2v-2M184 26h18v18m-18-2h2v2M206 24v18h18m0-16h-2v-2M224 26h18v18m-18-2h2v2M6 44v18h18m0-16h-2v-2M24 62h20M24 46h20M44 62h20M44 46h20M64 62h20M64 46h2v-2m18 2h-2v-2M84 46h20M84 62h2v2m18-2h-2v2M104 62h20m-20-16h2v-2m18 2h-2v-2M124 62h20m-20-16h2v-2m18 2h-2v-2M144 62h20m-20-16h20M164 62h20m-20-16h20M184 62h20m-20-16h2v-2m18 2h-2v-2M204 62h20m-20-16h20M224 62h18V44m-18 2h2v-2M6 84V66h18m0 16h-2v2M24 66h18v16H24M64 66H46v16h18M64 66h18v18m-18-2h2v2M86 64v18h18m0-16h-2v-2M104 66h18v18m-18-2h2v2M126 84V66h18m0 16h-2v2M144 66h18v16h-18M184 66h-18v16h18M184 66h18v18m-18-2h2v2M206 84V66h18m0 16h-2v2M224 66h18v16h-18M6 84v18h18m0-16h-2v-2M24 86h18v18m-18-2h2v2M46 104V86h18m0 16h-2v2M64 102h18V84m-18 2h2v-2M86 104V86h18m0 16h-2v2M104 102h18V84m-18 2h2v-2M126 84v18h18m0-16h-2v-2M144 86h18v18m-18-2h2v2M166 104V86h18m0 16h-2v2M184 102h18V84m-18 2h2v-2M206 84v18h18m0-16h-2v-2M224 86h18v18m-18-2h2v2M24 106H6v16h18M24 122h20m-20-16h2v-2m18 2h-2v-2M44 122h20m-20-16h2v-2m18 2h-2v-2M64 106h20m-20 16h2v2m18-2h-2v2M84 122h20m-20-16h2v-2m18 2h-2v-2M104 122h20m-20-16h20M124 122h20m-20-16h20M144 122h20m-20-16h2v-2m18 2h-2v-2M164 122h20m-20-16h2v-2m18 2h-2v-2M184 122h20m-20-16h20M204 122h20m-20-16h20M224 122h18v-18m-18 2h2v-2M24 126H6v16h18M24 126h18v18m-18-2h2v2M46 144v-18h18m0 16h-2v2M64 142h18v-18m-18 2h2v-2M86 144v-18h18m0 16h-2v2M104 126h18v16h-18M144 126h-18v16h18M144 126h18v18m-18-2h2v2M166 144v-18h18m0 16h-2v2M184 126h18v16h-18M224 126h-18v16h18M224 126h18v18m-18-2h2v2M6 164v-18h18m0 16h-2v2M24 162h18v-18m-18 2h2v-2M46 144v18h18m0-16h-2v-2M64 146h18v18m-18-2h2v2M86 144v18h18m0-16h-2v-2M104 146h18v18m-18-2h2v2M126 164v-18h18m0 16h-2v2M144 162h18v-18m-18 2h2v-2M166 144v18h18m0-16h-2v-2M184 146h18v18m-18-2h2v2M206 164v-18h18m0 16h-2v2M224 162h18v-18m-18 2h2v-2M6 164v18h18m0-16h-2v-2M24 182h20m-20-16h20M44 182h20m-20-16h20M64 182h20m-20-16h2v-2m18 2h-2v-2M84 182h20m-20-16h20M104 182h20m-20-16h2v-2m18 2h-2v-2M124 182h20m-20-16h2v-2m18 2h-2v-2M144 166h20m-20 16h2v2m18-2h-2v2M164 182h20m-20-16h20M184 182h20m-20-16h2v-2m18 2h-2v-2M204 182h20m-20-16h2v-2m18 2h-2v-2M224 166h18v16h-18M24 186H6v16h18M24 186h18v18m-18-2h2v2M46 204v-18h18m0 16h-2v2M64 186h18v16H64M104 186H86v16h18M104 186h18v18m-18-2h2v2M126 204v-18h18m0 16h-2v2M144 202h18v-18m-18 2h2v-2M184 186h-18v16h18M184 186h18v18m-18-2h2v2M224 186h-18v16h18M224 186h18v18m-18-2h2v2M6 224v-18h18m0 16h-2v2M24 222h18v-18m-18 2h2v-2M46 204v18h18m0-16h-2v-2M64 206h18v18m-18-2h2v2M86 224v-18h18m0 16h-2v2M104 222h18v-18m-18 2h2v-2M126 204v18h18m0-16h-2v-2M144 206h18v18m-18-2h2v2M166 224v-18h18m0 16h-2v2M184 222h18v-18m-18 2h2v-2M206 224v-18h18m0 16h-2v2M224 222h18v-18m-18 2h2v-2M6 224v18h18m0-16h-2v-2M24 242h20m-20-16h20M44 242h20m-20-16h20M64 242h20m-20-16h2v-2m18 2h-2v-2M84 242h20m-20-16h2v-2m18 2h-2v-2M104 242h20m-20-16h20M124 226h20m-20 16h2v2m18-2h-2v2M144 242h20m-20-16h2v-2m18 2h-2v-2M164 242h20m-20-16h2v-2m18 2h-2v-2M184 242h20m-20-16h20M204 242h20m-20-16h2v-2m18 2h-2v-2M224 226h18v16h-18M6 264v-18h18m0 16h-2v2M24 246h18v16H24M64 246H46v16h18M64 246h18v18m-18-2h2v2M86 264v-18h18m0 16h-2v2M104 246h18v16h-18M126 244v18h18m0-16h-2v-2M144 246h18v18m-18-2h2v2M166 264v-18h18m0 16h-2v2M184 246h18v16h-18M206 264v-18h18m0 16h-2v2M224 246h18v16h-18M6 264v18h18m0-16h-2v-2M24 266h18v18m-18-2h2v2M46 284v-18h18m0 16h-2v2M64 282h18v-18m-18 2h2v-2M86 264v18h18m0-16h-2v-2M104 266h18v18m-18-2h2v2M126 284v-18h18m0 16h-2v2M144 282h18v-18m-18 2h2v-2M166 264v18h18m0-16h-2v-2M184 266h18v18m-18-2h2v2M206 264v18h18m0-16h-2v-2M224 266h18v18m-18-2h2v2M6 304v-18h18m0 16h-2v2M24 302h20m-20-16h2v-2m18 2h-2v-2M44 302h20m-20-16h2v-2m18 2h-2v-2M64 302h20m-20-16h20M84 302h20m-20-16h20M104 302h20m-20-16h2v-2m18 2h-2v-2M124 302h20m-20-16h2v-2m18 2h-2v-2M144 302h20m-20-16h20M164 302h20m-20-16h20M184 302h20m-20-16h2v-2m18 2h-2v-2M204 302h20m-20-16h20M224 302h18v-18m-18 2h2v-2M6 304v18h18m0-16h-2v-2M24 306h18v18m-18-2h2v2M64 306H46v16h18M64 306h18v18m-18-2h2v2M86 324v-18h18m0 16h-2v2M104 306h18v16h-18M144 306h-18v16h18M144 306h18v18m-18-2h2v2M166 324v-18h18m0 16h-2v2M184 306h18v16h-18M224 306h-18v16h18M224 306h18v18m-18-2h2v2M6 344v-18h18m0 16h-2v2M24 342h18v-18m-18 2h2v-2M46 344v-18h18m0 16h-2v2M64 342h18v-18m-18 2h2v-2M86 324v18h18m0-16h-2v-2M104 326h18v18m-18-2h2v2M126 344v-18h18m0 16h-2v2M144 342h18v-18m-18 2h2v-2M166 324v18h18m0-16h-2v-2M184 326h18v18m-18-2h2v2M206 344v-18h18m0 16h-2v2M224 342h18v-18m-18 2h2v-2M6 344v18h18m0-16h-2v-2M24 362h20m-20-16h20M44 362h20m-20-16h2v-2m18 2h-2v-2M64 362h20m-20-16h20M84 346h20m-20 16h2v2m18-2h-2v2M104 362h20m-20-16h2v-2m18 2h-2v-2M124 362h20m-20-16h2v-2m18 2h-2v-2M144 362h20m-20-16h20M164 362h20m-20-16h20M184 362h20m-20-16h2v-2m18 2h-2v-2M204 362h20m-20-16h2v-2m18 2h-2v-2M224 346h18v16h-18M6 384v-18h18m0 16h-2v2M24 366h18v16H24M46 384v-18h18m0 16h-2v2M64 366h18v16H64M86 364v18h18m0-16h-2v-2M104 366h18v18m-18-2h2v2M126 384v-18h18m0 16h-2v2M144 366h18v16h-18M166 384v-18h18m0 16h-2v2M184 366h18v16h-18M224 366h-18v16h18M224 366h18v18m-18-2h2v2M6 384v18h18m0-16h-2v-2M24 386h18v18m-18-2h2v2M46 384v18h18m0-16h-2v-2M64 386h18v18m-18-2h2v2M86 404v-18h18m0 16h-2v2M104 402h18v-18m-18 2h2v-2M126 384v18h18m0-16h-2v-2M144 386h18v18m-18-2h2v2M166 384v18h18m0-16h-2v-2M184 386h18v18m-18-2h2v2M206 404v-18h18m0 16h-2v2M224 402h18v-18m-18 2h2v-2M24 406H6v16h18M24 422h20m-20-16h2v-2m18 2h-2v-2M44 422h20m-20-16h20M64 422h20m-20-16h2v-2m18 2h-2v-2M84 422h20m-20-16h2v-2m18 2h-2v-2M104 422h20m-20-16h20M124 422h20m-20-16h20M144 422h20m-20-16h2v-2m18 2h-2v-2M164 406h20m-20 16h2v2m18-2h-2v2M184 422h20m-20-16h2v-2m18 2h-2v-2M204 422h20m-20-16h2v-2m18 2h-2v-2M224 406h18v16h-18M24 426H6v16h18M24 426h18v18m-18-2h2v2M46 444v-18h18m0 16h-2v2M64 426h18v16H64M86 444v-18h18m0 16h-2v2M104 426h18v16h-18M126 444v-18h18m0 16h-2v2M144 426h18v16h-18M166 424v18h18m0-16h-2v-2M184 426h18v18m-18-2h2v2M224 426h-18v16h18M224 426h18v18m-18-2h2v2M6 464v-18h18m0 16h-2v2M24 462h18v-18m-18 2h2v-2M46 444v18h18m0-16h-2v-2M64 446h18v18m-18-2h2v2M86 444v18h18m0-16h-2v-2M104 446h18v18m-18-2h2v2M126 444v18h18m0-16h-2v-2M144 446h18v18m-18-2h2v2M166 464v-18h18m0 16h-2v2M184 462h18v-18m-18 2h2v-2M206 464v-18h18m0 16h-2v2M224 462h18v-18m-18 2h2v-2M6 464v18h18m0-16h-2v-2M24 466h20m-20 16h2v2m18-2h-2v2M44 482h20m-20-16h20M64 482h20m-20-16h2v-2m18 2h-2v-2M84 482h20m-20-16h20M104 482h20m-20-16h2v-2m18 2h-2v-2M124 482h20m-20-16h20M144 482h20m-20-16h2v-2m18 2h-2v-2M164 482h20m-20-16h2v-2m18 2h-2v-2M184 482h20m-20-16h20M204 482h20m-20-16h2v-2m18 2h-2v-2M224 466h18v16h-18M6 504v-18h18m0 16h-2v2M24 502h18v-18m-18 2h2v-2M64 486H46v16h18M64 486h18v18m-18-2h2v2M86 504v-18h18m0 16h-2v2M104 486h18v16h-18M126 504v-18h18m0 16h-2v2M144 486h18v16h-18M184 486h-18v16h18M184 486h18v18m-18-2h2v2M224 486h-18v16h18M224 486h18v18m-18-2h2v2M6 504v18h18m0-16h-2v-2M24 506h18v18m-18-2h2v2M46 524v-18h18m0 16h-2v2M64 522h18v-18m-18 2h2v-2M86 504v18h18m0-16h-2v-2M104 506h18v18m-18-2h2v2M126 504v20m18-18h-2v-2m2 18h-2v2M144 506h18v16h-18M166 524v-18h18m0 16h-2v2M184 522h18v-18m-18 2h2v-2M206 524v-18h18m0 16h-2v2M224 522h18v-18m-18 2h2v-2M24 526H6v16h18M24 542h20m-20-16h2v-2m18 2h-2v-2M44 542h20m-20-16h2v-2m18 2h-2v-2M64 542h20m-20-16h20M84 542h20m-20-16h20M104 542h20m-20-16h2v-2m18 2h-2v-2M124 542h20m-20-16h2v-2m18 2h-2v-2M144 542h20m-20-16h20M164 542h20m-20-16h2v-2m18 2h-2v-2M184 526h20m-20 16h2v2m18-2h-2v2M204 542h20m-20-16h2v-2m18 2h-2v-2M224 526h18v16h-18M24 546H6v16h18M24 546h18v18m-18-2h2v2M46 564v-18h18m0 16h-2v2M64 546h18v16H64M104 546H86v16h18M104 546h18v18m-18-2h2v2M144 546h-18v16h18M144 546h18v18m-18-2h2v2M184 546h-18v16h18M202 544v20m-18-18h2v-2m-2 18h2v2M206 564v-18h18m0 16h-2v2M224 546h18v16h-18M6 584v-18h18m0 16h-2v2M24 582h18v-18m-18 2h2v-2M46 564v18h18m0-16h-2v-2M64 566h18v18m-18-2h2v2M86 584v-18h18m0 16h-2v2M104 582h18v-18m-18 2h2v-2M126 584v-18h18m0 16h-2v2M144 582h18v-18m-18 2h2v-2M166 584v-18h18m0 16h-2v2M184 582h18v-18m-18 2h2v-2M206 564v18h18m0-16h-2v-2M224 566h18v18m-18-2h2v2M6 584v18h18m0-16h-2v-2M24 602h20m-20-16h20M44 602h20m-20-16h20M64 602h20m-20-16h2v-2m18 2h-2v-2M84 602h20m-20-16h2v-2m18 2h-2v-2M104 602h20m-20-16h20M124 602h20m-20-16h2v-2m18 2h-2v-2M144 602h20m-20-16h20M164 602h20m-20-16h2v-2m18 2h-2v-2M184 602h20m-20-16h20M204 586h20m-20 16h2v2m18-2h-2v2M224 602h18v-18m-18 2h2v-2M6 624v-18h18m0 16h-2v2M24 606h18v16H24M46 624v-18h18m0 16h-2v2M64 606h18v16H64M104 606H86v16h18M104 606h18v18m-18-2h2v2M144 606h-18v16h18M144 606h18v18m-18-2h2v2M184 606h-18v16h18M184 606h18v18m-18-2h2v2M206 604v18h18m0-16h-2v-2M224 606h18v18m-18-2h2v2M6 624v18h18m0-16h-2v-2M24 626h18v18m-18-2h2v2M46 624v18h18m0-16h-2v-2M64 626h18v18m-18-2h2v2M86 644v-18h18m0 16h-2v2M104 642h18v-18m-18 2h2v-2M126 644v-18h18m0 16h-2v2M144 642h18v-18m-18 2h2v-2M166 644v-18h18m0 16h-2v2M184 642h18v-18m-18 2h2v-2M206 644v-18h18m0 16h-2v2M224 642h18v-18m-18 2h2v-2M24 646H6v16h18M24 662h20m-20-16h2v-2m18 2h-2v-2M44 662h20m-20-16h20M64 662h20m-20-16h2v-2m18 2h-2v-2M84 662h20m-20-16h2v-2m18 2h-2v-2M104 662h20m-20-16h20M124 662h20m-20-16h2v-2m18 2h-2v-2M144 662h20m-20-16h20M164 662h20m-20-16h2v-2m18 2h-2v-2M184 646h20m-20 16h2v2m18-2h-2v2M204 662h20m-20-16h2v-2m18 2h-2v-2M224 646h18v16h-18M24 666H6v16h18M24 666h18v18m-18-2h2v2M46 684v-18h18m0 16h-2v2M64 666h18v16H64M86 684v-18h18m0 16h-2v2M104 666h18v16h-18M144 666h-18v16h18M144 666h18v18m-18-2h2v2M166 684v-18h18m0 16h-2v2M184 682h18v-18m-18 2h2v-2M224 666h-18v16h18M224 666h18v18m-18-2h2v2M6 704v-18h18m0 16h-2v2M24 702h18v-18m-18 2h2v-2M46 684v18h18m0-16h-2v-2M64 686h18v18m-18-2h2v2M86 684v18h18m0-16h-2v-2M104 686h18v18m-18-2h2v2M126 704v-18h18m0 16h-2v2M144 702h18v-18m-18 2h2v-2M166 684v18h18m0-16h-2v-2M184 686h18v18m-18-2h2v2M206 704v-18h18m0 16h-2v2M224 702h18v-18m-18 2h2v-2M6 704v18h18m0-16h-2v-2M24 706h20m-20 16h2v2m18-2h-2v2M44 722h20m-20-16h20M64 722h20m-20-16h2v-2m18 2h-2v-2M84 722h20m-20-16h20M104 722h20m-20-16h2v-2m18 2h-2v-2M124 722h20m-20-16h2v-2m18 2h-2v-2M144 722h20m-20-16h20M164 722h20m-20-16h20M184 722h20m-20-16h2v-2m18 2h-2v-2M204 722h20m-20-16h2v-2m18 2h-2v-2M224 706h18v16h-18M6 744v-18h18m0 16h-2v2M24 742h18v-18m-18 2h2v-2M64 726H46v16h18M64 726h18v18m-18-2h2v2M104 726H86v16h18M104 726h18v18m-18-2h2v2M126 744v-18h18m0 16h-2v2M144 726h18v16h-18M184 726h-18v16h18M184 726h18v18m-18-2h2v2M206 744v-18h18m0 16h-2v2M224 726h18v16h-18M6 744v18h18m0-16h-2v-2M24 746h18v18m-18-2h2v2M46 764v-18h18m0 16h-2v2M64 762h18v-18m-18 2h2v-2M86 764v-18h18m0 16h-2v2M104 762h18v-18m-18 2h2v-2M126 744v18h18m0-16h-2v-2M144 746h18v18m-18-2h2v2M166 764v-18h18m0 16h-2v2M184 762h18v-18m-18 2h2v-2M206 744v18h18m0-16h-2v-2M224 746h18v18m-18-2h2v2M24 766H6v16h18M24 782h20m-20-16h2v-2m18 2h-2v-2M44 782h20m-20-16h2v-2m18 2h-2v-2M64 782h20m-20-16h20M84 782h20m-20-16h2v-2m18 2h-2v-2M104 782h20m-20-16h20M124 782h20m-20-16h20M144 782h20m-20-16h2v-2m18 2h-2v-2M164 782h20m-20-16h2v-2m18 2h-2v-2M184 782h20m-20-16h20M204 766h20m-20 16h2v2m18-2h-2v2M224 782h18v-18m-18 2h2v-2M24 786H6v16h18M24 786h18v18m-18-2h2v2M64 786H46v16h18M64 786h18v18m-18-2h2v2M104 786H86v16h18M104 786h18v18m-18-2h2v2M144 786h-18v16h18M144 786h18v18m-18-2h2v2M184 786h-18v16h18M184 786h18v18m-18-2h2v2M206 784v18h18m0-16h-2v-2M224 786h18v18m-18-2h2v2M6 824v-18h18m0 16h-2v2M24 822h18v-18m-18 2h2v-2M64 806H46v16h18M82 804v20m-18-18h2v-2m-2 18h2v2M86 824v-18h18m0 16h-2v2M104 822h18v-18m-18 2h2v-2M126 824v-18h18m0 16h-2v2M144 822h18v-18m-18 2h2v-2M166 824v-18h18m0 16h-2v2M184 822h18v-18m-18 2h2v-2M206 824v-18h18m0 16h-2v2M224 822h18v-18m-18 2h2v-2M6 824v18h18m0-16h-2v-2M24 842h20m-20-16h20M44 842h20m-20-16h20M64 842h20m-20-16h2v-2m18 2h-2v-2M84 842h20m-20-16h2v-2m18 2h-2v-2M104 842h20m-20-16h20M124 842h20m-20-16h2v-2m18 2h-2v-2M144 842h20m-20-16h20M164 842h20m-20-16h2v-2m18 2h-2v-2M184 842h20m-20-16h20M204 842h20m-20-16h2v-2m18 2h-2v-2M224 826h18v16h-18"/></svg>