
<svg version="1.1" width="248" height="848" xmlns="http://www.w3.org/2000/svg">
  <style>path {fill: none; stroke: black; stroke-width: 1; stroke-linejoin: round} #background {fill: ghostwhite}</style>
  <g transform="scale(2)">
    <rect id="background" x="1.0" y="1.0" width="122" height="422" stroke="black">
    </rect>
    <g transform="translate(2, 2)">
      <g transform="translate(0, 0)">
        <path d="M 1 10 v -9 h 9 M 10 9 h -1 v 1">
        </path>
      </g>
      <g transform="translate(10, 0)">
        <path d="M 0 1 h 9 v 8 h -9">
        </path>
      </g>
      <g transform="translate(20, 0)">
        <path d="M 10 1 h -9 v 8 h 9">
        </path>
      </g>
      <g transform="translate(30, 0)">
        <path d="M 0 1 h 9 v 9 M 0 9 h 1 v 1">
        </path>
      </g>
      <g transform="translate(40, 0)">
        <path d="M 10 1 h -9 v 8 h 9">
        </path>
      </g>
      <g transform="translate(50, 0)">
        <path d="M 0 1 h 9 v 9 M 0 9 h 1 v 1">
        </path>
      </g>
      <g transform="translate(60, 0)">
        <path d="M 10 1 h -9 v 8 h 9">
        </path>
      </g>
      <g transform="translate(70, 0)">
        <path d="M 0 1 h 9 v 9 M 0 9 h 1 v 1">
        </path>
      </g>
      <g transform="translate(80, 0)">
        <path d="M 1 10 v -9 h 9 M 10 9 h -1 v 1">
        </path>
      </g>
      <g transform="translate(90, 0)">
        <path d="M 0 1 h 9 v 8 h -9">
        </path>
      </g>
      <g transform="translate(100, 0)">
        <path d="M 10 1 h -9 v 8 h 9">
        </path>
      </g>
      <g transform="translate(110, 0)">
        <path d="M 0 1 h 9 v 9 M 0 9 h 1 v 1">
        </path>
      </g>
      <g transform="translate(0, 10)">
        <path d="M 1 0 v 10 M 10 1 h -1 v -1 M 10 9 h -1 v 1">
        </path>
      </g>
      <g transform="translate(10, 10)">
        <path d="M 0 1 h 9 v 8 h -9">
        </path>
      </g>
      <g transform="translate(20, 10)">
        <path d="M 1 10 v -9 h 9 M 10 9 h -1 v 1">
        </path>
      </g>
      <g transform="translate(30, 10)">
        <path d="M 0 9 h 9 v -9 M 0 1 h 1 v -1">
        </path>
      </g>
      <g transform="translate(40, 10)">
        <path d="M 1 10 v -9 h 9 M 10 9 h -1 v 1">
        </path>
      </g>
      <g transform="translate(50, 10)">
        <path d="M 0 9 h 9 v -9 M 0 1 h 1 v -1">
        </path>
      </g>
      <g transform="translate(60, 10)">
        <path d="M 1 10 v -9 h 9 M 10 9 h -1 v 1">
        </path>
      </g>
      <g transform="translate(70, 10)">
        <path d="M 0 9 h 9 v -9 M 0 1 h 1 v -1">
        </path>
      </g>
      <g transform="translate(80, 10)">
        <path d="M 1 0 v 10 M 10 1 h -1 v -1 M 10 9 h -1 v 1">
        </path>
      </g>
      <g transform="translate(90, 10)">
        <path d="M 0 1 h 9 v 8 h -9">
        </path>
      </g>
      <g transform="translate(100, 10)">
        <path d="M 1 10 v -9 h 9 M 10 9 h -1 v 1">
        </path>
      </g>
      <g transform="translate(110, 10)">
        <path d="M 0 9 h 9 v -9 M 0 1 h 1 v -1">
        </path>
      </g>
      <g transform="translate(0, 20)">
        <path d="M 1 0 v 9 h 9 M 10 1 h -1 v -1">
        </path>
      </g>
      <g transform="translate(10, 20)">
        <path d="M 0 9 h 10 M 0 1 h 10">
        </path>
      </g>
      <g transform="translate(20, 20)">
        <path d="M 0 9 h 10 M 0 1 h 1 v -1 M 10 1 h -1 v -1">
        </path>
      </g>
      <g transform="translate(30, 20)">
        <path d="M 0 9 h 10 M 0 1 h 10">
        </path>
      </g>
      <g transform="translate(40, 20)">
        <path d="M 0 9 h 10 M 0 1 h 1 v -1 M 10 1 h -1 v -1">
        </path>
      </g>
      <g transform="translate(50, 20)">
        <path d="M 0 9 h 10 M 0 1 h 10">
        </path>
      </g>
      <g transform="translate(60, 20)">
        <path d="M 0 9 h 10 M 0 1 h 1 v -1 M 10 1 h -1 v -1">
        </path>
      </g>
      <g transform="translate(70, 20)">
        <path d="M 0 1 h 10 M 0 9 h 1 v 1 M 10 9 h -1 v 1">
        </path>
      </g>
      <g transform="translate(80, 20)">
        <path d="M 0 9 h 10 M 0 1 h 1 v -1 M 10 1 h -1 v -1">
        </path>
      </g>
      <g transform="translate(90, 20)">
        <path d="M 0 9 h 10 M 0 1 h 10">
        </path>
      </g>
      <g transform="translate(100, 20)">
        <path d="M 0 9 h 10 M 0 1 h 1 v -1 M 10 1 h -1 v -1">
        </path>
      </g>
      <g transform="translate(110, 20)">
        <path d="M 0 1 h 9 v 8 h -9">
        </path>
      </g>
      <g transform="translate(0, 30)">
        <path d="M 1 10 v -9 h 9 M 10 9 h -1 v 1">
        </path>
      </g>
      <g transform="translate(10, 30)">
        <path d="M 0 1 h 9 v 8 h -9">
        </path>
      </g>
      <g transform="translate(20, 30)">
        <path d="M 1 10 v -9 h 9 M 10 9 h -1 v 1">
        </path>
      </g>
      <g transform="translate(30, 30)">
        <path d="M 0 1 h 9 v 8 h -9">
        </path>
      </g>
      <g transform="translate(40, 30)">
        <path d="M 1 10 v -9 h 9 M 10 9 h -1 v 1">
        </path>
      </g>
      <g transform="translate(50, 30)">
        <path d="M 0 1 h 9 v 8 h -9">
        </path>
      </g>
      <g transform="translate(60, 30)">
        <path d="M 1 10 v -9 h 9 M 10 9 h -1 v 1">
        </path>
      </g>
      <g transform="translate(70, 30)">
        <path d="M 0 9 h 9 v -9 M 0 1 h 1 v -1">
        </path>
      </g>
      <g transform="translate(80, 30)">
        <path d="M 1 10 v -9 h 9 M 10 9 h -1 v 1">
        </path>
      </g>
      <g transform="translate(90, 30)">
        <path d="M 0 1 h 9 v 8 h -9">
        </path>
      </g>
      <g transform="translate(100, 30)">
        <path d="M 1 10 v -9 h 9 M 10 9 h -1 v 1">
        </path>
      </g>
      <g transform="translate(110, 30)">
        <path d="M 0 1 h 9 v 8 h -9">
        </path>
      </g>
      <g transform="translate(0, 40)">
        <path d="M 1 0 v 9 h 9 M 10 1 h -1 v -1">
        </path>
      </g>
      <g transform="translate(10, 40)">
        <path d="M 0 1 h 9 v 9 M 0 9 h 1 v 1">
        </path>
      </g>
      <g transform="translate(20, 40)">
        <path d="M 1 0 v 9 h 9 M 10 1 h -1 v -1">
        </path>
      </g>
      <g transform="translate(30, 40)">
        <path d="M 0 1 h 9 v 9 M 0 9 h 1 v 1">
        </path>
      </g>
      <g transform="translate(40, 40)">
        <path d="M 1 0 v 9 h 9 M 10 1 h -1 v -1">
        </path>
      </g>
      <g transform="translate(50, 40)">
        <path d="M 0 1 h 9 v 9 M 0 9 h 1 v 1">
        </path>
      </g>
      <g transform="translate(60, 40)">
        <path d="M 1 0 v 9 h 9 M 10 1 h -1 v -1">
        </path>
      </g>
      <g transform="translate(70, 40)">
        <path d="M 0 1 h 9 v 9 M 0 9 h 1 v 1">
        </path>
      </g>
      <g transform="translate(80, 40)">
        <path d="M 1 0 v 9 h 9 M 10 1 h -1 v -1">
        </path>
      </g>
      <g transform="translate(90, 40)">
        <path d="M 0 1 h 9 v 9 M 0 9 h 1 v 1">
        </path>
      </g>
      <g transform="translate(100, 40)">
        <path d="M 1 0 v 9 h 9 M 10 1 h -1 v -1">
        </path>
      </g>
      <g transform="translate(110, 40)">
        <path d="M 0 1 h 9 v 9 M 0 9 h 1 v 1">
        </path>
      </g>
      <g transform="translate(0, 50)">
        <path d="M 10 1 h -9 v 8 h 9">
        </path>
      </g>
      <g transform="translate(10, 50)">
        <path d="M 0 9 h 10 M 0 1 h 1 v -1 M 10 1 h -1 v -1">
        </path>
      </g>
      <g transform="translate(20, 50)">
        <path d="M 0 9 h 10 M 0 1 h 10">
        </path>
      </g>
      <g transform="translate(30, 50)">
        <path d="M 0 9 h 10 M 0 1 h 1 v -1 M 10 1 h -1 v -1">
        </path>
      </g>
      <g transform="translate(40, 50)">
        <path d="M 0 9 h 10 M 0 1 h 10">
        </path>
      </g>
      <g transform="translate(50, 50)">
        <path d="M 0 9 h 10 M 0 1 h 1 v -1 M 10 1 h -1 v -1">
        </path>
      </g>
      <g transform="translate(60, 50)">
        <path d="M 0 9 h 10 M 0 1 h 10">
        </path>
      </g>
      <g transform="translate(70, 50)">
        <path d="M 0 9 h 10 M 0 1 h 1 v -1 M 10 1 h -1 v -1">
        </path>
      </g>
      <g transform="translate(80, 50)">
        <path d="M 0 9 h 10 M 0 1 h 10">
        </path>
      </g>
      <g transform="translate(90, 50)">
        <path d="M 0 9 h 10 M 0 1 h 1 v -1 M 10 1 h -1 v -1">
        </path>
      </g>
      <g transform="translate(100, 50)">
        <path d="M 0 1 h 10 M 0 9 h 1 v 1 M 10 9 h -1 v 1">
        </path>
      </g>
      <g transform="translate(110, 50)">
        <path d="M 0 9 h 9 v -9 M 0 1 h 1 v -1">
        </path>
      </g>
      <g transform="translate(0, 60)">
        <path d="M 10 1 h -9 v 8 h 9">
        </path>
      </g>
      <g transform="translate(10, 60)">
        <path d="M 0 1 h 9 v 9 M 0 9 h 1 v 1">
        </path>
      </g>
      <g transform="translate(20, 60)">
        <path d="M 1 10 v -9 h 9 M 10 9 h -1 v 1">
        </path>
      </g>
      <g transform="translate(30, 60)">
        <path d="M 0 1 h 9 v 8 h -9">
        </path>
      </g>
      <g transform="translate(40, 60)">
        <path d="M 10 1 h -9 v 8 h 9">
        </path>
      </g>
      <g transform="translate(50, 60)">
        <path d="M 0 1 h 9 v 9 M 0 9 h 1 v 1">
        </path>
      </g>
      <g transform="translate(60, 60)">
        <path d="M 1 10 v -9 h 9 M 10 9 h -1 v 1">
        </path>
      </g>
      <g transform="translate(70, 60)">
        <path d="M 0 1 h 9 v 8 h -9">
        </path>
      </g>
      <g transform="translate(80, 60)">
        <path d="M 10 1 h -9 v 8 h 9">
        </path>
      </g>
      <g transform="translate(90, 60)">
        <path d="M 0 1 h 9 v 9 M 0 9 h 1 v 1">
        </path>
      </g>
      <g transform="translate(100, 60)">
        <path d="M 1 0 v 9 h 9 M 10 1 h -1 v -1">
        </path>
      </g>
      <g transform="translate(110, 60)">
        <path d="M 0 1 h 9 v 9 M 0 9 h 1 v 1">
        </path>
      </g>
      <g transform="translate(0, 70)">
        <path d="M 1 10 v -9 h 9 M 10 9 h -1 v 1">
        </path>
      </g>
      <g transform="translate(10, 70)">
        <path d="M 0 9 h 9 v -9 M 0 1 h 1 v -1">
        </path>
      </g>
      <g transform="translate(20, 70)">
        <path d="M 1 0 v 10 M 10 1 h -1 v -1 M 10 9 h -1 v 1">
        </path>
      </g>
      <g transform="translate(30, 70)">
        <path d="M 0 1 h 9 v 8 h -9">
        </path>
      </g>
      <g transform="translate(40, 70)">
        <path d="M 1 10 v -9 h 9 M 10 9 h -1 v 1">
        </path>
      </g>
      <g transform="translate(50, 70)">
        <path d="M 0 9 h 9 v -9 M 0 1 h 1 v -1">
        </path>
      </g>
      <g transform="translate(60, 70)">
        <path d="M 1 0 v 9 h 9 M 10 1 h -1 v -1">
        </path>
      </g>
      <g transform="translate(70, 70)">
        <path d="M 0 1 h 9 v 9 M 0 9 h 1 v 1">
        </path>
      </g>
      <g transform="translate(80, 70)">
        <path d="M 1 10 v -9 h 9 M 10 9 h -1 v 1">
        </path>
      </g>
      <g transform="translate(90, 70)">
        <path d="M 0 9 h 9 v -9 M 0 1 h 1 v -1">
        </path>
      </g>
      <g transform="translate(100, 70)">
        <path d="M 1 10 v -9 h 9 M 10 9 h -1 v 1">
        </path>
      </g>
      <g transform="translate(110, 70)">
        <path d="M 0 9 h 9 v -9 M 0 1 h 1 v -1">
        </path>
      </g>
      <g transform="translate(0, 80)">
        <path d="M 1 0 v 9 h 9 M 10 1 h -1 v -1">
        </path>
      </g>
      <g transform="translate(10, 80)">
        <path d="M 0 9 h 10 M 0 1 h 10">
        </path>
      </g>
      <g transform="translate(20, 80)">
        <path d="M 0 1 h 1 v -1 M 10 1 h -1 v -1 M 0 9 h 1 v 1 M 10 9 h -1 v 1">
        </path>
      </g>
      <g transform="translate(30, 80)">
        <path d="M 0 9 h 10 M 0 1 h 10">
        </path>
      </g>
      <g transform="translate(40, 80)">
        <path d="M 0 9 h 10 M 0 1 h 1 v -1 M 10 1 h -1 v -1">
        </path>
      </g>
      <g transform="translate(50, 80)">
        <path d="M 0 9 h 10 M 0 1 h 10">
        </path>
      </g>
      <g transform="translate(60, 80)">
        <path d="M 0 9 h 10 M 0 1 h 10">
        </path>
      </g>
      <g transform="translate(70, 80)">
        <path d="M 0 9 h 10 M 0 1 h 1 v -1 M 10 1 h -1 v -1">
        </path>
      </g>
      <g transform="translate(80, 80)">
        <path d="M 0 9 h 10 M 0 1 h 1 v -1 M 10 1 h -1 v -1">
        </path>
      </g>
      <g transform="translate(90, 80)">
        <path d="M 0 9 h 10 M 0 1 h 10">
        </path>
      </g>
      <g transform="translate(100, 80)">
        <path d="M 0 9 h 10 M 0 1 h 1 v -1 M 10 1 h -1 v -1">
        </path>
      </g>
      <g transform="translate(110, 80)">
        <path d="M 0 1 h 9 v 8 h -9">
        </path>
      </g>
      <g transform="translate(0, 90)">
        <path d="M 1 10 v -9 h 9 M 10 9 h -1 v 1">
        </path>
      </g>
      <g transform="translate(10, 90)">
        <path d="M 0 1 h 9 v 8 h -9">
        </path>
      </g>
      <g transform="translate(20, 90)">
        <path d="M 1 0 v 9 h 9 M 10 1 h -1 v -1">
        </path>
      </g>
      <g transform="translate(30, 90)">
        <path d="M 0 1 h 9 v 9 M 0 9 h 1 v 1">
        </path>
      </g>
      <g transform="translate(40, 90)">
        <path d="M 1 10 v -9 h 9 M 10 9 h -1 v 1">
        </path>
      </g>
      <g transform="translate(50, 90)">
        <path d="M 0 1 h 9 v 8 h -9">
        </path>
      </g>
      <g transform="translate(60, 90)">
        <path d="M 1 10 v -9 h 9 M 10 9 h -1 v 1">
        </path>
      </g>
      <g transform="translate(70, 90)">
        <path d="M 0 1 h 9 v 8 h -9">
        </path>
      </g>
      <g transform="translate(80, 90)">
        <path d="M 1 10 v -9 h 9 M 10 9 h -1 v 1">
        </path>
      </g>
      <g transform="translate(90, 90)">
        <path d="M 0 1 h 9 v 8 h -9">
        </path>
      </g>
      <g transform="translate(100, 90)">
        <path d="M 1 10 v -9 h 9 M 10 9 h -1 v 1">
        </path>
      </g>
      <g transform="translate(110, 90)">
        <path d="M 0 1 h 9 v 8 h -9">
        </path>
      </g>
      <g transform="translate(0, 100)">
        <path d="M 1 0 v 9 h 9 M 10 1 h -1 v -1">
        </path>
      </g>
      <g transform="translate(10, 100)">
        <path d="M 0 1 h 9 v 9 M 0 9 h 1 v 1">
        </path>
      </g>
      <g transform="translate(20, 100)">
        <path d="M 1 10 v -9 h 9 M 10 9 h -1 v 1">
        </path>
      </g>
      <g transform="translate(30, 100)">
        <path d="M 0 9 h 9 v -9 M 0 1 h 1 v -1">
        </path>
      </g>
      <g transform="translate(40, 100)">
        <path d="M 1 0 v 9 h 9 M 10 1 h -1 v -1">
        </path>
      </g>
      <g transform="translate(50, 100)">
        <path d="M 0 1 h 9 v 9 M 0 9 h 1 v 1">
        </path>
      </g>
      <g transform="translate(60, 100)">
        <path d="M 1 0 v 9 h 9 M 10 1 h -1 v -1">
        </path>
      </g>
      <g transform="translate(70, 100)">
        <path d="M 0 1 h 9 v 9 M 0 9 h 1 v 1">
        </path>
      </g>
      <g transform="translate(80, 100)">
        <path d="M 1 0 v 9 h 9 M 10 1 h -1 v -1">
        </path>
      </g>
      <g transform="translate(90, 100)">
        <path d="M 0 1 h 9 v 9 M 0 9 h 1 v 1">
        </path>
      </g>
      <g transform="translate(100, 100)">
        <path d="M 1 0 v 9 h 9 M 10 1 h -1 v -1">
        </path>
      </g>
      <g transform="translate(110, 100)">
        <path d="M 0 1 h 9 v 9 M 0 9 h 1 v 1">
        </path>
      </g>
      <g transform="translate(0, 110)">
        <path d="M 10 1 h -9 v 8 h 9">
        </path>
      </g>
      <g transform="translate(10, 110)">
        <path d="M 0 9 h 10 M 0 1 h 1 v -1 M 10 1 h -1 v -1">
        </path>
      </g>
      <g transform="translate(20, 110)">
        <path d="M 0 9 h 10 M 0 1 h 1 v -1 M 10 1 h -1 v -1">
        </path>
      </g>
      <g transform="translate(30, 110)">
        <path d="M 0 9 h 10 M 0 1 h 10">
        </path>
      </g>
      <g transform="translate(40, 110)">
        <path d="M 0 9 h 10 M 0 1 h 10">
        </path>
      </g>
      <g transform="translate(50, 110)">
        <path d="M 0 9 h 10 M 0 1 h 1 v -1 M 10 1 h -1 v -1">
        </path>
      </g>
      <g transform="translate(60, 110)">
        <path d="M 0 1 h 10 M 0 9 h 1 v 1 M 10 9 h -1 v 1">
        </path>
      </g>
      <g transform="translate(70, 110)">
        <path d="M 0 9 h 10 M 0 1 h 1 v -1 M 10 1 h -1 v -1">
        </path>
      </g>
      <g transform="translate(80, 110)">
        <path d="M 0 9 h 10 M 0 1 h 10">
        </path>
      </g>
      <g transform="translate(90, 110)">
        <path d="M 0 9 h 10 M 0 1 h 1 v -1 M 10 1 h -1 v -1">
        </path>
      </g>
      <g transform="translate(100, 110)">
        <path d="M 0 9 h 10 M 0 1 h 10">
        </path>
      </g>
      <g transform="translate(110, 110)">
        <path d="M 0 9 h 9 v -9 M 0 1 h 1 v -1">
        </path>
      </g>
      <g transform="translate(0, 120)">
        <path d="M 10 1 h -9 v 8 h 9">
        </path>
      </g>
      <g transform="translate(10, 120)">
        <path d="M 0 1 h 9 v 9 M 0 9 h 1 v 1">
        </path>
      </g>
      <g transform="translate(20, 120)">
        <path d="M 10 1 h -9 v 8 h 9">
        </path>
      </g>
      <g transform="translate(30, 120)">
        <path d="M 0 1 h 9 v 9 M 0 9 h 1 v 1">
        </path>
      </g>
      <g transform="translate(40, 120)">
        <path d="M 10 1 h -9 v 8 h 9">
        </path>
      </g>
      <g transform="translate(50, 120)">
        <path d="M 0 1 h 9 v 9 M 0 9 h 1 v 1">
        </path>
      </g>
      <g transform="translate(60, 120)">
        <path d="M 1 0 v 9 h 9 M 10 1 h -1 v -1">
        </path>
      </g>
      <g transform="translate(70, 120)">
        <path d="M 0 1 h 9 v 9 M 0 9 h 1 v 1">
        </path>
      </g>
      <g transform="translate(80, 120)">
        <path d="M 1 10 v -9 h 9 M 10 9 h -1 v 1">
        </path>
      </g>
      <g transform="translate(90, 120)">
        <path d="M 0 1 h 9 v 8 h -9">
        </path>
      </g>
      <g transform="translate(100, 120)">
        <path d="M 10 1 h -9 v 8 h 9">
        </path>
      </g>
      <g transform="translate(110, 120)">
        <path d="M 0 1 h 9 v 9 M 0 9 h 1 v 1">
        </path>
      </g>
      <g transform="translate(0, 130)">
        <path d="M 1 10 v -9 h 9 M 10 9 h -1 v 1">
        </path>
      </g>
      <g transform="translate(10, 130)">
        <path d="M 0 9 h 9 v -9 M 0 1 h 1 v -1">
        </path>
      </g>
      <g transform="translate(20, 130)">
        <path d="M 1 10 v -9 h 9 M 10 9 h -1 v 1">
        </path>
      </g>
      <g transform="translate(30, 130)">
        <path d="M 0 9 h 9 v -9 M 0 1 h 1 v -1">
        </path>
      </g>
      <g transform="translate(40, 130)">
        <path d="M 1 10 v -9 h 9 M 10 9 h -1 v 1">
        </path>
      </g>
      <g transform="translate(50, 130)">
        <path d="M 0 9 h 9 v -9 M 0 1 h 1 v -1">
        </path>
      </g>
      <g transform="translate(60, 130)">
        <path d="M 1 10 v -9 h 9 M 10 9 h -1 v 1">
        </path>
      </g>
      <g transform="translate(70, 130)">
        <path d="M 0 9 h 9 v -9 M 0 1 h 1 v -1">
        </path>
      </g>
      <g transform="translate(80, 130)">
        <path d="M 1 0 v 9 h 9 M 10 1 h -1 v -1">
        </path>
      </g>
      <g transform="translate(90, 130)">
        <path d="M 0 1 h 9 v 9 M 0 9 h 1 v 1">
        </path>
      </g>
      <g transform="translate(100, 130)">
        <path d="M 1 10 v -9 h 9 M 10 9 h -1 v 1">
        </path>
      </g>
      <g transform="translate(110, 130)">
        <path d="M 0 9 h 9 v -9 M 0 1 h 1 v -1">
        </path>
      </g>
      <g transform="translate(0, 140)">
        <path d="M 1 0 v 9 h 9 M 10 1 h -1 v -1">
        </path>
      </g>
      <g transform="translate(10, 140)">
        <path d="M 0 9 h 10 M 0 1 h 10">
        </path>
      </g>
      <g transform="translate(20, 140)">
        <path d="M 0 9 h 10 M 0 1 h 1 v -1 M 10 1 h -1 v -1">
        </path>
      </g>
      <g transform="translate(30, 140)">
        <path d="M 0 1 h 10 M 0 9 h 1 v 1 M 10 9 h -1 v 1">
        </path>
      </g>
      <g transform="translate(40, 140)">
        <path d="M 0 9 h 10 M 0 1 h 1 v -1 M 10 1 h -1 v -1">
        </path>
      </g>
      <g transform="translate(50, 140)">
        <path d="M 0 9 h 10 M 0 1 h 10">
        </path>
      </g>
      <g transform="translate(60, 140)">
        <path d="M 0 9 h 10 M 0 1 h 1 v -1 M 10 1 h -1 v -1">
        </path>
      </g>
      <g transform="translate(70, 140)">
        <path d="M 0 9 h 10 M 0 1 h 10">
        </path>
      </g>
      <g transform="translate(80, 140)">
        <path d="M 0 9 h 10 M 0 1 h 10">
        </path>
      </g>
      <g transform="translate(90, 140)">
        <path d="M 0 9 h 10 M 0 1 h 1 v -1 M 10 1 h -1 v -1">
        </path>
      </g>
      <g transform="translate(100, 140)">
        <path d="M 0 9 h 10 M 0 1 h 1 v -1 M 10 1 h -1 v -1">
        </path>
      </g>
      <g transform="translate(110, 140)">
        <path d="M 0 1 h 9 v 8 h -9">
        </path>
      </g>
      <g transform="translate(0, 150)">
        <path d="M 10 1 h -9 v 8 h 9">
        </path>
      </g>
      <g transform="translate(10, 150)">
        <path d="M 0 1 h 9 v 9 M 0 9 h 1 v 1">
        </path>
      </g>
      <g transform="translate(20, 150)">
        <path d="M 1 10 v -9 h 9 M 10 9 h -1 v 1">
        </path>
      </g>
      <g transform="translate(30, 150)">
        <path d="M 0 9 h 9 v -9 M 0 1 h 1 v -1">
        </path>
      </g>
      <g transform="translate(40, 150)">
        <path d="M 1 10 v -9 h 9 M 10 9 h -1 v 1">
        </path>
      </g>
      <g transform="translate(50, 150)">
        <path d="M 0 1 h 9 v 8 h -9">
        </path>
      </g>
      <g transform="translate(60, 150)">
        <path d="M 10 1 h -9 v 8 h 9">
        </path>
      </g>
      <g transform="translate(70, 150)">
        <path d="M 0 1 h 9 v 9 M 0 9 h 1 v 1">
        </path>
      </g>
      <g transform="translate(80, 150)">
        <path d="M 1 10 v -9 h 9 M 10 9 h -1 v 1">
        </path>
      </g>
      <g transform="translate(90, 150)">
        <path d="M 0 1 h 9 v 8 h -9">
        </path>
      </g>
      <g transform="translate(100, 150)">
        <path d="M 10 1 h -9 v 8 h 9">
        </path>
      </g>
      <g transform="translate(110, 150)">
        <path d="M 0 1 h 9 v 9 M 0 9 h 1 v 1">
        </path>
      </g>
      <g transform="translate(0, 160)">
        <path d="M 1 10 v -9 h 9 M 10 9 h -1 v 1">
        </path>
      </g>
      <g transform="translate(10, 160)">
        <path d="M 0 9 h 9 v -9 M 0 1 h 1 v -1">
        </path>
      </g>
      <g transform="translate(20, 160)">
        <path d="M 1 0 v 9 h 9 M 10 1 h -1 v -1">
        </path>
      </g>
      <g transform="translate(30, 160)">
        <path d="M 0 1 h 9 v 9 M 0 9 h 1 v 1">
        </path>
      </g>
      <g transform="translate(40, 160)">
        <path d="M 1 0 v 9 h 9 M 10 1 h -1 v -1">
        </path>
      </g>
      <g transform="translate(50, 160)">
        <path d="M 0 1 h 9 v 9 M 0 9 h 1 v 1">
        </path>
      </g>
      <g transform="translate(60, 160)">
        <path d="M 10 1 h -9 v 8 h 9">
        </path>
      </g>
      <g transform="translate(70, 160)">
        <path d="M 9 0 v 10 M 0 1 h 1 v -1 M 0 9 h 1 v 1">
        </path>
      </g>
      <g transform="translate(80, 160)">
        <path d="M 1 0 v 9 h 9 M 10 1 h -1 v -1">
        </path>
      </g>
      <g transform="translate(90, 160)">
        <path d="M 0 1 h 9 v 9 M 0 9 h 1 v 1">
        </path>
      </g>
      <g transform="translate(100, 160)">
        <path d="M 1 10 v -9 h 9 M 10 9 h -1 v 1">
        </path>
      </g>
      <g transform="translate(110, 160)">
        <path d="M 0 9 h 9 v -9 M 0 1 h 1 v -1">
        </path>
      </g>
      <g transform="translate(0, 170)">
        <path d="M 1 0 v 9 h 9 M 10 1 h -1 v -1">
        </path>
      </g>
      <g transform="translate(10, 170)">
        <path d="M 0 9 h 10 M 0 1 h 10">
        </path>
      </g>
      <g transform="translate(20, 170)">
        <path d="M 0 9 h 10 M 0 1 h 10">
        </path>
      </g>
      <g transform="translate(30, 170)">
        <path d="M 0 9 h 10 M 0 1 h 1 v -1 M 10 1 h -1 v -1">
        </path>
      </g>
      <g transform="translate(40, 170)">
        <path d="M 0 1 h 10 M 0 9 h 1 v 1 M 10 9 h -1 v 1">
        </path>
      </g>
      <g transform="translate(50, 170)">
        <path d="M 0 9 h 10 M 0 1 h 1 v -1 M 10 1 h -1 v -1">
        </path>
      </g>
      <g transform="translate(60, 170)">
        <path d="M 0 9 h 10 M 0 1 h 10">
        </path>
      </g>
      <g transform="translate(70, 170)">
        <path d="M 0 9 h 10 M 0 1 h 1 v -1 M 10 1 h -1 v -1">
        </path>
      </g>
      <g transform="translate(80, 170)">
        <path d="M 0 9 h 10 M 0 1 h 10">
        </path>
      </g>
      <g transform="translate(90, 170)">
        <path d="M 0 9 h 10 M 0 1 h 1 v -1 M 10 1 h -1 v -1">
        </path>
      </g>
      <g transform="translate(100, 170)">
        <path d="M 0 9 h 10 M 0 1 h 1 v -1 M 10 1 h -1 v -1">
        </path>
      </g>
      <g transform="translate(110, 170)">
        <path d="M 0 1 h 9 v 8 h -9">
        </path>
      </g>
      <g transform="translate(0, 180)">
        <path d="M 1 10 v -9 h 9 M 10 9 h -1 v 1">
        </path>
      </g>
      <g transform="translate(10, 180)">
        <path d="M 0 1 h 9 v 8 h -9">
        </path>
      </g>
      <g transform="translate(20, 180)">
        <path d="M 10 1 h -9 v 8 h 9">
        </path>
      </g>
      <g transform="translate(30, 180)">
        <path d="M 0 1 h 9 v 9 M 0 9 h 1 v 1">
        </path>
      </g>
      <g transform="translate(40, 180)">
        <path d="M 1 0 v 9 h 9 M 10 1 h -1 v -1">
        </path>
      </g>
      <g transform="translate(50, 180)">
        <path d="M 0 1 h 9 v 9 M 0 9 h 1 v 1">
        </path>
      </g>
      <g transform="translate(60, 180)">
        <path d="M 1 10 v -9 h 9 M 10 9 h -1 v 1">
        </path>
      </g>
      <g transform="translate(70, 180)">
        <path d="M 0 1 h 9 v 8 h -9">
        </path>
      </g>
      <g transform="translate(80, 180)">
        <path d="M 1 10 v -9 h 9 M 10 9 h -1 v 1">
        </path>
      </g>
      <g transform="translate(90, 180)">
        <path d="M 0 1 h 9 v 8 h -9">
        </path>
      </g>
      <g transform="translate(100, 180)">
        <path d="M 1 10 v -9 h 9 M 10 9 h -1 v 1">
        </path>
      </g>
      <g transform="translate(110, 180)">
        <path d="M 0 1 h 9 v 8 h -9">
        </path>
      </g>
      <g transform="translate(0, 190)">
        <path d="M 1 0 v 9 h 9 M 10 1 h -1 v -1">
        </path>
      </g>
      <g transform="translate(10, 190)">
        <path d="M 0 1 h 9 v 9 M 0 9 h 1 v 1">
        </path>
      </g>
      <g transform="translate(20, 190)">
        <path d="M 1 10 v -9 h 9 M 10 9 h -1 v 1">
        </path>
      </g>
      <g transform="translate(30, 190)">
        <path d="M 0 9 h 9 v -9 M 0 1 h 1 v -1">
        </path>
      </g>
      <g transform="translate(40, 190)">
        <path d="M 1 10 v -9 h 9 M 10 9 h -1 v 1">
        </path>
      </g>
      <g transform="translate(50, 190)">
        <path d="M 0 9 h 9 v -9 M 0 1 h 1 v -1">
        </path>
      </g>
      <g transform="translate(60, 190)">
        <path d="M 1 0 v 9 h 9 M 10 1 h -1 v -1">
        </path>
      </g>
      <g transform="translate(70, 190)">
        <path d="M 0 1 h 9 v 9 M 0 9 h 1 v 1">
        </path>
      </g>
      <g transform="translate(80, 190)">
        <path d="M 1 0 v 9 h 9 M 10 1 h -1 v -1">
        </path>
      </g>
      <g transform="translate(90, 190)">
        <path d="M 0 1 h 9 v 9 M 0 9 h 1 v 1">
        </path>
      </g>
      <g transform="translate(100, 190)">
        <path d="M 1 0 v 9 h 9 M 10 1 h -1 v -1">
        </path>
      </g>
      <g transform="translate(110, 190)">
        <path d="M 0 1 h 9 v 9 M 0 9 h 1 v 1">
        </path>
      </g>
      <g transform="translate(0, 200)">
        <path d="M 1 10 v -9 h 9 M 10 9 h -1 v 1">
        </path>
      </g>
      <g transform="translate(10, 200)">
        <path d="M 0 9 h 10 M 0 1 h 1 v -1 M 10 1 h -1 v -1">
        </path>
      </g>
      <g transform="translate(20, 200)">
        <path d="M 0 9 h 10 M 0 1 h 1 v -1 M 10 1 h -1 v -1">
        </path>
      </g>
      <g transform="translate(30, 200)">
        <path d="M 0 9 h 10 M 0 1 h 10">
        </path>
      </g>
      <g transform="translate(40, 200)">
        <path d="M 0 9 h 10 M 0 1 h 1 v -1 M 10 1 h -1 v -1">
        </path>
      </g>
      <g transform="translate(50, 200)">
        <path d="M 0 9 h 10 M 0 1 h 10">
        </path>
      </g>
      <g transform="translate(60, 200)">
        <path d="M 0 9 h 10 M 0 1 h 10">
        </path>
      </g>
      <g transform="translate(70, 200)">
        <path d="M 0 9 h 10 M 0 1 h 1 v -1 M 10 1 h -1 v -1">
        </path>
      </g>
      <g transform="translate(80, 200)">
        <path d="M 0 9 h 10 M 0 1 h 10">
        </path>
      </g>
      <g transform="translate(90, 200)">
        <path d="M 0 9 h 10 M 0 1 h 1 v -1 M 10 1 h -1 v -1">
        </path>
      </g>
      <g transform="translate(100, 200)">
        <path d="M 0 9 h 10 M 0 1 h 10">
        </path>
      </g>
      <g transform="translate(110, 200)">
        <path d="M 0 9 h 9 v -9 M 0 1 h 1 v -1">
        </path>
      </g>
      <g transform="translate(0, 210)">
        <path d="M 1 0 v 9 h 9 M 10 1 h -1 v -1">
        </path>
      </g>
      <g transform="translate(10, 210)">
        <path d="M 0 1 h 9 v 9 M 0 9 h 1 v 1">
        </path>
      </g>
      <g transform="translate(20, 210)">
        <path d="M 1 10 v -9 h 9 M 10 9 h -1 v 1">
        </path>
      </g>
      <g transform="translate(30, 210)">
        <path d="M 0 1 h 9 v 8 h -9">
        </path>
      </g>
      <g transform="translate(40, 210)">
        <path d="M 1 10 v -9 h 9 M 10 9 h -1 v 1">
        </path>
      </g>
      <g transform="translate(50, 210)">
        <path d="M 0 1 h 9 v 8 h -9">
        </path>
      </g>
      <g transform="translate(60, 210)">
        <path d="M 10 1 h -9 v 8 h 9">
        </path>
      </g>
      <g transform="translate(70, 210)">
        <path d="M 0 1 h 9 v 9 M 0 9 h 1 v 1">
        </path>
      </g>
      <g transform="translate(80, 210)">
        <path d="M 1 10 v -9 h 9 M 10 9 h -1 v 1">
        </path>
      </g>
      <g transform="translate(90, 210)">
        <path d="M 0 1 h 9 v 8 h -9">
        </path>
      </g>
      <g transform="translate(100, 210)">
        <path d="M 10 1 h -9 v 8 h 9">
        </path>
      </g>
      <g transform="translate(110, 210)">
        <path d="M 0 1 h 9 v 9 M 0 9 h 1 v 1">
        </path>
      </g>
      <g transform="translate(0, 220)">
        <path d="M 1 10 v -9 h 9 M 10 9 h -1 v 1">
        </path>
      </g>
      <g transform="translate(10, 220)">
        <path d="M 0 9 h 9 v -9 M 0 1 h 1 v -1">
        </path>
      </g>
      <g transform="translate(20, 220)">
        <path d="M 1 0 v 9 h 9 M 10 1 h -1 v -1">
        </path>
      </g>
      <g transform="translate(30, 220)">
        <path d="M 0 1 h 9 v 9 M 0 9 h 1 v 1">
        </path>
      </g>
      <g transform="translate(40, 220)">
        <path d="M 1 0 v 9 h 9 M 10 1 h -1 v -1">
        </path>
      </g>
      <g transform="translate(50, 220)">
        <path d="M 0 1 h 9 v 9 M 0 9 h 1 v 1">
        </path>
      </g>
      <g transform="translate(60, 220)">
        <path d="M 1 10 v -9 h 9 M 10 9 h -1 v 1">
        </path>
      </g>
      <g transform="translate(70, 220)">
        <path d="M 0 9 h 9 v -9 M 0 1 h 1 v -1">
        </path>
      </g>
      <g transform="translate(80, 220)">
        <path d="M 1 0 v 9 h 9 M 10 1 h -1 v -1">
        </path>
      </g>
      <g transform="translate(90, 220)">
        <path d="M 0 1 h 9 v 9 M 0 9 h 1 v 1">
        </path>
      </g>
      <g transform="translate(100, 220)">
        <path d="M 1 10 v -9 h 9 M 10 9 h -1 v 1">
        </path>
      </g>
      <g transform="translate(110, 220)">
        <path d="M 0 9 h 9 v -9 M 0 1 h 1 v -1">
        </path>
      </g>
      <g transform="translate(0, 230)">
        <path d="M 1 0 v 9 h 9 M 10 1 h -1 v -1">
        </path>
      </g>
      <g transform="translate(10, 230)">
        <path d="M 0 9 h 10 M 0 1 h 10">
        </path>
      </g>
      <g transform="translate(20, 230)">
        <path d="M 0 9 h 10 M 0 1 h 10">
        </path>
      </g>
      <g transform="translate(30, 230)">
        <path d="M 0 9 h 10 M 0 1 h 1 v -1 M 10 1 h -1 v -1">
        </path>
      </g>
      <g transform="translate(40, 230)">
        <path d="M 0 1 h 10 M 0 9 h 1 v 1 M 10 9 h -1 v 1">
        </path>
      </g>
      <g transform="translate(50, 230)">
        <path d="M 0 9 h 10 M 0 1 h 1 v -1 M 10 1 h -1 v -1">
        </path>
      </g>
      <g transform="translate(60, 230)">
        <path d="M 0 9 h 10 M 0 1 h 1 v -1 M 10 1 h -1 v -1">
        </path>
      </g>
      <g transform="translate(70, 230)">
        <path d="M 0 9 h 10 M 0 1 h 10">
        </path>
      </g>
      <g transform="translate(80, 230)">
        <path d="M 0 9 h 10 M 0 1 h 10">
        </path>
      </g>
      <g transform="translate(90, 230)">
        <path d="M 0 9 h 10 M 0 1 h 1 v -1 M 10 1 h -1 v -1">
        </path>
      </g>
      <g transform="translate(100, 230)">
        <path d="M 0 9 h 10 M 0 1 h 1 v -1 M 10 1 h -1 v -1">
        </path>
      </g>
      <g transform="translate(110, 230)">
        <path d="M 0 1 h 9 v 8 h -9">
        </path>
      </g>
      <g transform="translate(0, 240)">
        <path d="M 1 10 v -9 h 9 M 10 9 h -1 v 1">
        </path>
      </g>
      <g transform="translate(10, 240)">
        <path d="M 0 1 h 9 v 8 h -9">
        </path>
      </g>
      <g transform="translate(20, 240)">
        <path d="M 10 1 h -9 v 8 h 9">
        </path>
      </g>
      <g transform="translate(30, 240)">
        <path d="M 0 1 h 9 v 9 M 0 9 h 1 v 1">
        </path>
      </g>
      <g transform="translate(40, 240)">
        <path d="M 1 0 v 9 h 9 M 10 1 h -1 v -1">
        </path>
      </g>
      <g transform="translate(50, 240)">
        <path d="M 0 1 h 9 v 9 M 0 9 h 1 v 1">
        </path>
      </g>
      <g transform="translate(60, 240)">
        <path d="M 10 1 h -9 v 8 h 9">
        </path>
      </g>
      <g transform="translate(70, 240)">
        <path d="M 0 1 h 9 v 9 M 0 9 h 1 v 1">
        </path>
      </g>
      <g transform="translate(80, 240)">
        <path d="M 1 10 v -9 h 9 M 10 9 h -1 v 1">
        </path>
      </g>
      <g transform="translate(90, 240)">
        <path d="M 0 1 h 9 v 8 h -9">
        </path>
      </g>
      <g transform="translate(100, 240)">
        <path d="M 10 1 h -9 v 8 h 9">
        </path>
      </g>
      <g transform="translate(110, 240)">
        <path d="M 0 1 h 9 v 9 M 0 9 h 1 v 1">
        </path>
      </g>
      <g transform="translate(0, 250)">
        <path d="M 1 0 v 9 h 9 M 10 1 h -1 v -1">
        </path>
      </g>
      <g transform="translate(10, 250)">
        <path d="M 0 1 h 9 v 9 M 0 9 h 1 v 1">
        </path>
      </g>
      <g transform="translate(20, 250)">
        <path d="M 1 10 v -9 h 9 M 10 9 h -1 v 1">
        </path>
      </g>
      <g transform="translate(30, 250)">
        <path d="M 0 9 h 9 v -9 M 0 1 h 1 v -1">
        </path>
      </g>
      <g transform="translate(40, 250)">
        <path d="M 1 10 v -9 h 9 M 10 9 h -1 v 1">
        </path>
      </g>
      <g transform="translate(50, 250)">
        <path d="M 0 9 h 9 v -9 M 0 1 h 1 v -1">
        </path>
      </g>
      <g transform="translate(60, 250)">
        <path d="M 1 10 v -9 h 9 M 10 9 h -1 v 1">
        </path>
      </g>
      <g transform="translate(70, 250)">
        <path d="M 0 9 h 9 v -9 M 0 1 h 1 v -1">
        </path>
      </g>
      <g transform="translate(80, 250)">
        <path d="M 1 0 v 9 h 9 M 10 1 h -1 v -1">
        </path>
      </g>
      <g transform="translate(90, 250)">
        <path d="M 0 1 h 9 v 9 M 0 9 h 1 v 1">
        </path>
      </g>
      <g transform="translate(100, 250)">
        <path d="M 1 10 v -9 h 9 M 10 9 h -1 v 1">
        </path>
      </g>
      <g transform="translate(110, 250)">
        <path d="M 0 9 h 9 v -9 M 0 1 h 1 v -1">
        </path>
      </g>
      <g transform="translate(0, 260)">
        <path d="M 10 1 h -9 v 8 h 9">
        </path>
      </g>
      <g transform="translate(10, 260)">
        <path d="M 0 9 h 10 M 0 1 h 1 v -1 M 10 1 h -1 v -1">
        </path>
      </g>
      <g transform="translate(20, 260)">
        <path d="M 0 9 h 10 M 0 1 h 1 v -1 M 10 1 h -1 v -1">
        </path>
      </g>
      <g transform="translate(30, 260)">
        <path d="M 0 9 h 10 M 0 1 h 10">
        </path>
      </g>
      <g transform="translate(40, 260)">
        <path d="M 0 9 h 10 M 0 1 h 1 v -1 M 10 1 h -1 v -1">
        </path>
      </g>
      <g transform="translate(50, 260)">
        <path d="M 0 9 h 10 M 0 1 h 10">
        </path>
      </g>
      <g transform="translate(60, 260)">
        <path d="M 0 9 h 10 M 0 1 h 1 v -1 M 10 1 h -1 v -1">
        </path>
      </g>
      <g transform="translate(70, 260)">
        <path d="M 0 1 h 10 M 0 9 h 1 v 1 M 10 9 h -1 v 1">
        </path>
      </g>
      <g transform="translate(80, 260)">
        <path d="M 0 9 h 10 M 0 1 h 10">
        </path>
      </g>
      <g transform="translate(90, 260)">
        <path d="M 0 9 h 10 M 0 1 h 1 v -1 M 10 1 h -1 v -1">
        </path>
      </g>
      <g transform="translate(100, 260)">
        <path d="M 0 9 h 10 M 0 1 h 1 v -1 M 10 1 h -1 v -1">
        </path>
      </g>
      <g transform="translate(110, 260)">
        <path d="M 0 1 h 9 v 8 h -9">
        </path>
      </g>
      <g transform="translate(0, 270)">
        <path d="M 1 10 v -9 h 9 M 10 9 h -1 v 1">
        </path>
      </g>
      <g transform="translate(10, 270)">
        <path d="M 0 1 h 9 v 8 h -9">
        </path>
      </g>
      <g transform="translate(20, 270)">
        <path d="M 1 10 v -9 h 9 M 10 9 h -1 v 1">
        </path>
      </g>
      <g transform="translate(30, 270)">
        <path d="M 0 1 h 9 v 8 h -9">
        </path>
      </g>
      <g transform="translate(40, 270)">
        <path d="M 10 1 h -9 v 8 h 9">
        </path>
      </g>
      <g transform="translate(50, 270)">
        <path d="M 0 1 h 9 v 9 M 0 9 h 1 v 1">
        </path>
      </g>
      <g transform="translate(60, 270)">
        <path d="M 1 10 v -9 h 9 M 10 9 h -1 v 1">
        </path>
      </g>
      <g transform="translate(70, 270)">
        <path d="M 0 9 h 9 v -9 M 0 1 h 1 v -1">
        </path>
      </g>
      <g transform="translate(80, 270)">
        <path d="M 10 1 h -9 v 8 h 9">
        </path>
      </g>
      <g transform="translate(90, 270)">
        <path d="M 0 1 h 9 v 9 M 0 9 h 1 v 1">
        </path>
      </g>
      <g transform="translate(100, 270)">
        <path d="M 10 1 h -9 v 8 h 9">
        </path>
      </g>
      <g transform="translate(110, 270)">
        <path d="M 0 1 h 9 v 9 M 0 9 h 1 v 1">
        </path>
      </g>
      <g transform="translate(0, 280)">
        <path d="M 1 0 v 9 h 9 M 10 1 h -1 v -1">
        </path>
      </g>
      <g transform="translate(10, 280)">
        <path d="M 0 1 h 9 v 9 M 0 9 h 1 v 1">
        </path>
      </g>
      <g transform="translate(20, 280)">
        <path d="M 1 0 v 9 h 9 M 10 1 h -1 v -1">
        </path>
      </g>
      <g transform="translate(30, 280)">
        <path d="M 0 1 h 9 v 9 M 0 9 h 1 v 1">
        </path>
      </g>
      <g transform="translate(40, 280)">
        <path d="M 1 10 v -9 h 9 M 10 9 h -1 v 1">
        </path>
      </g>
      <g transform="translate(50, 280)">
        <path d="M 0 9 h 9 v -9 M 0 1 h 1 v -1">
        </path>
      </g>
      <g transform="translate(60, 280)">
        <path d="M 1 0 v 9 h 9 M 10 1 h -1 v -1">
        </path>
      </g>
      <g transform="translate(70, 280)">
        <path d="M 0 1 h 9 v 9 M 0 9 h 1 v 1">
        </path>
      </g>
      <g transform="translate(80, 280)">
        <path d="M 1 10 v -9 h 9 M 10 9 h -1 v 1">
        </path>
      </g>
      <g transform="translate(90, 280)">
        <path d="M 0 9 h 9 v -9 M 0 1 h 1 v -1">
        </path>
      </g>
      <g transform="translate(100, 280)">
        <path d="M 1 10 v -9 h 9 M 10 9 h -1 v 1">
        </path>
      </g>
      <g transform="translate(110, 280)">
        <path d="M 0 9 h 9 v -9 M 0 1 h 1 v -1">
        </path>
      </g>
      <g transform="translate(0, 290)">
        <path d="M 10 1 h -9 v 8 h 9">
        </path>
      </g>
      <g transform="translate(10, 290)">
        <path d="M 0 9 h 10 M 0 1 h 1 v -1 M 10 1 h -1 v -1">
        </path>
      </g>
      <g transform="translate(20, 290)">
        <path d="M 0 1 h 10 M 0 9 h 1 v 1 M 10 9 h -1 v 1">
        </path>
      </g>
      <g transform="translate(30, 290)">
        <path d="M 0 9 h 10 M 0 1 h 1 v -1 M 10 1 h -1 v -1">
        </path>
      </g>
      <g transform="translate(40, 290)">
        <path d="M 0 9 h 10 M 0 1 h 1 v -1 M 10 1 h -1 v -1">
        </path>
      </g>
      <g transform="translate(50, 290)">
        <path d="M 0 9 h 10 M 0 1 h 10">
        </path>
      </g>
      <g transform="translate(60, 290)">
        <path d="M 0 9 h 10 M 0 1 h 10">
        </path>
      </g>
      <g transform="translate(70, 290)">
        <path d="M 0 9 h 10 M 0 1 h 1 v -1 M 10 1 h -1 v -1">
        </path>
      </g>
      <g transform="translate(80, 290)">
        <path d="M 0 9 h 10 M 0 1 h 1 v -1 M 10 1 h -1 v -1">
        </path>
      </g>
      <g transform="translate(90, 290)">
        <path d="M 0 9 h 10 M 0 1 h 10">
        </path>
      </g>
      <g transform="translate(100, 290)">
        <path d="M 0 9 h 10 M 0 1 h 1 v -1 M 10 1 h -1 v -1">
        </path>
      </g>
      <g transform="translate(110, 290)">
        <path d="M 0 1 h 9 v 8 h -9">
        </path>
      </g>
      <g transform="translate(0, 300)">
        <path d="M 1 10 v -9 h 9 M 10 9 h -1 v 1">
        </path>
      </g>
      <g transform="translate(10, 300)">
        <path d="M 0 1 h 9 v 8 h -9">
        </path>
      </g>
      <g transform="translate(20, 300)">
        <path d="M 1 0 v 9 h 9 M 10 1 h -1 v -1">
        </path>
      </g>
      <g transform="translate(30, 300)">
        <path d="M 0 1 h 9 v 9 M 0 9 h 1 v 1">
        </path>
      </g>
      <g transform="translate(40, 300)">
        <path d="M 1 10 v -9 h 9 M 10 9 h -1 v 1">
        </path>
      </g>
      <g transform="translate(50, 300)">
        <path d="M 0 1 h 9 v 8 h -9">
        </path>
      </g>
      <g transform="translate(60, 300)">
        <path d="M 1 10 v -9 h 9 M 10 9 h -1 v 1">
        </path>
      </g>
      <g transform="translate(70, 300)">
        <path d="M 0 1 h 9 v 8 h -9">
        </path>
      </g>
      <g transform="translate(80, 300)">
        <path d="M 1 10 v -9 h 9 M 10 9 h -1 v 1">
        </path>
      </g>
      <g transform="translate(90, 300)">
        <path d="M 0 1 h 9 v 8 h -9">
        </path>
      </g>
      <g transform="translate(100, 300)">
        <path d="M 1 10 v -9 h 9 M 10 9 h -1 v 1">
        </path>
      </g>
      <g transform="translate(110, 300)">
        <path d="M 0 1 h 9 v 8 h -9">
        </path>
      </g>
      <g transform="translate(0, 310)">
        <path d="M 1 0 v 9 h 9 M 10 1 h -1 v -1">
        </path>
      </g>
      <g transform="translate(10, 310)">
        <path d="M 0 1 h 9 v 9 M 0 9 h 1 v 1">
        </path>
      </g>
      <g transform="translate(20, 310)">
        <path d="M 1 10 v -9 h 9 M 10 9 h -1 v 1">
        </path>
      </g>
      <g transform="translate(30, 310)">
        <path d="M 0 9 h 9 v -9 M 0 1 h 1 v -1">
        </path>
      </g>
      <g transform="translate(40, 310)">
        <path d="M 1 0 v 9 h 9 M 10 1 h -1 v -1">
        </path>
      </g>
      <g transform="translate(50, 310)">
        <path d="M 0 1 h 9 v 9 M 0 9 h 1 v 1">
        </path>
      </g>
      <g transform="translate(60, 310)">
        <path d="M 1 0 v 9 h 9 M 10 1 h -1 v -1">
        </path>
      </g>
      <g transform="translate(70, 310)">
        <path d="M 0 1 h 9 v 9 M 0 9 h 1 v 1">
        </path>
      </g>
      <g transform="translate(80, 310)">
        <path d="M 1 0 v 9 h 9 M 10 1 h -1 v -1">
        </path>
      </g>
      <g transform="translate(90, 310)">
        <path d="M 0 1 h 9 v 9 M 0 9 h 1 v 1">
        </path>
      </g>
      <g transform="translate(100, 310)">
        <path d="M 1 0 v 9 h 9 M 10 1 h -1 v -1">
        </path>
      </g>
      <g transform="translate(110, 310)">
        <path d="M 0 1 h 9 v 9 M 0 9 h 1 v 1">
        </path>
      </g>
      <g transform="translate(0, 320)">
        <path d="M 10 1 h -9 v 8 h 9">
        </path>
      </g>
      <g transform="translate(10, 320)">
        <path d="M 0 9 h 10 M 0 1 h 1 v -1 M 10 1 h -1 v -1">
        </path>
      </g>
      <g transform="translate(20, 320)">
        <path d="M 0 9 h 10 M 0 1 h 1 v -1 M 10 1 h -1 v -1">
        </path>
      </g>
      <g transform="translate(30, 320)">
        <path d="M 0 9 h 10 M 0 1 h 10">
        </path>
      </g>
      <g transform="translate(40, 320)">
        <path d="M 0 1 h 10 M 0 9 h 1 v 1 M 10 9 h -1 v 1">
        </path>
      </g>
      <g transform="translate(50, 320)">
        <path d="M 0 9 h 10 M 0 1 h 1 v -1 M 10 1 h -1 v -1">
        </path>
      </g>
      <g transform="translate(60, 320)">
        <path d="M 0 9 h 10 M 0 1 h 10">
        </path>
      </g>
      <g transform="translate(70, 320)">
        <path d="M 0 9 h 10 M 0 1 h 1 v -1 M 10 1 h -1 v -1">
        </path>
      </g>
      <g transform="translate(80, 320)">
        <path d="M 0 9 h 10 M 0 1 h 10">
        </path>
      </g>
      <g transform="translate(90, 320)">
        <path d="M 0 9 h 10 M 0 1 h 1 v -1 M 10 1 h -1 v -1">
        </path>
      </g>
      <g transform="translate(100, 320)">
        <path d="M 0 9 h 10 M 0 1 h 10">
        </path>
      </g>
      <g transform="translate(110, 320)">
        <path d="M 0 9 h 9 v -9 M 0 1 h 1 v -1">
        </path>
      </g>
      <g transform="translate(0, 330)">
        <path d="M 10 1 h -9 v 8 h 9">
        </path>
      </g>
      <g transform="translate(10, 330)">
        <path d="M 0 1 h 9 v 9 M 0 9 h 1 v 1">
        </path>
      </g>
      <g transform="translate(20, 330)">
        <path d="M 10 1 h -9 v 8 h 9">
        </path>
      </g>
      <g transform="translate(30, 330)">
        <path d="M 0 1 h 9 v 9 M 0 9 h 1 v 1">
        </path>
      </g>
      <g transform="translate(40, 330)">
        <path d="M 1 0 v 9 h 9 M 10 1 h -1 v -1">
        </path>
      </g>
      <g transform="translate(50, 330)">
        <path d="M 0 1 h 9 v 9 M 0 9 h 1 v 1">
        </path>
      </g>
      <g transform="translate(60, 330)">
        <path d="M 10 1 h -9 v 8 h 9">
        </path>
      </g>
      <g transform="translate(70, 330)">
        <path d="M 0 1 h 9 v 9 M 0 9 h 1 v 1">
        </path>
      </g>
      <g transform="translate(80, 330)">
        <path d="M 10 1 h -9 v 8 h 9">
        </path>
      </g>
      <g transform="translate(90, 330)">
        <path d="M 0 1 h 9 v 9 M 0 9 h 1 v 1">
        </path>
      </g>
      <g transform="translate(100, 330)">
        <path d="M 10 1 h -9 v 8 h 9">
        </path>
      </g>
      <g transform="translate(110, 330)">
        <path d="M 0 1 h 9 v 9 M 0 9 h 1 v 1">
        </path>
      </g>
      <g transform="translate(0, 340)">
        <path d="M 1 10 v -9 h 9 M 10 9 h -1 v 1">
        </path>
      </g>
      <g transform="translate(10, 340)">
        <path d="M 0 9 h 9 v -9 M 0 1 h 1 v -1">
        </path>
      </g>
      <g transform="translate(20, 340)">
        <path d="M 1 10 v -9 h 9 M 10 9 h -1 v 1">
        </path>
      </g>
      <g transform="translate(30, 340)">
        <path d="M 0 9 h 9 v -9 M 0 1 h 1 v -1">
        </path>
      </g>
      <g transform="translate(40, 340)">
        <path d="M 1 10 v -9 h 9 M 10 9 h -1 v 1">
        </path>
      </g>
      <g transform="translate(50, 340)">
        <path d="M 0 9 h 9 v -9 M 0 1 h 1 v -1">
        </path>
      </g>
      <g transform="translate(60, 340)">
        <path d="M 1 10 v -9 h 9 M 10 9 h -1 v 1">
        </path>
      </g>
      <g transform="translate(70, 340)">
        <path d="M 0 9 h 9 v -9 M 0 1 h 1 v -1">
        </path>
      </g>
      <g transform="translate(80, 340)">
        <path d="M 1 10 v -9 h 9 M 10 9 h -1 v 1">
        </path>
      </g>
      <g transform="translate(90, 340)">
        <path d="M 0 9 h 9 v -9 M 0 1 h 1 v -1">
        </path>
      </g>
      <g transform="translate(100, 340)">
        <path d="M 1 10 v -9 h 9 M 10 9 h -1 v 1">
        </path>
      </g>
      <g transform="translate(110, 340)">
        <path d="M 0 9 h 9 v -9 M 0 1 h 1 v -1">
        </path>
      </g>
      <g transform="translate(0, 350)">
        <path d="M 1 0 v 9 h 9 M 10 1 h -1 v -1">
        </path>
      </g>
      <g transform="translate(10, 350)">
        <path d="M 0 9 h 10 M 0 1 h 10">
        </path>
      </g>
      <g transform="translate(20, 350)">
        <path d="M 0 9 h 10 M 0 1 h 1 v -1 M 10 1 h -1 v -1">
        </path>
      </g>
      <g transform="translate(30, 350)">
        <path d="M 0 9 h 10 M 0 1 h 10">
        </path>
      </g>
      <g transform="translate(40, 350)">
        <path d="M 0 9 h 10 M 0 1 h 1 v -1 M 10 1 h -1 v -1">
        </path>
      </g>
      <g transform="translate(50, 350)">
        <path d="M 0 9 h 10 M 0 1 h 10">
        </path>
      </g>
      <g transform="translate(60, 350)">
        <path d="M 0 9 h 10 M 0 1 h 1 v -1 M 10 1 h -1 v -1">
        </path>
      </g>
      <g transform="translate(70, 350)">
        <path d="M 0 9 h 10 M 0 1 h 10">
        </path>
      </g>
      <g transform="translate(80, 350)">
        <path d="M 0 9 h 10 M 0 1 h 1 v -1 M 10 1 h -1 v -1">
        </path>
      </g>
      <g transform="translate(90, 350)">
        <path d="M 0 1 h 10 M 0 9 h 1 v 1 M 10 9 h -1 v 1">
        </path>
      </g>
      <g transform="translate(100, 350)">
        <path d="M 0 9 h 10 M 0 1 h 1 v -1 M 10 1 h -1 v -1">
        </path>
      </g>
      <g transform="translate(110, 350)">
        <path d="M 0 1 h 9 v 8 h -9">
        </path>
      </g>
      <g transform="translate(0, 360)">
        <path d="M 1 10 v -9 h 9 M 10 9 h -1 v 1">
        </path>
      </g>
      <g transform="translate(10, 360)">
        <path d="M 0 1 h 9 v 8 h -9">
        </path>
      </g>
      <g transform="translate(20, 360)">
        <path d="M 1 10 v -9 h 9 M 10 9 h -1 v 1">
        </path>
      </g>
      <g transform="translate(30, 360)">
        <path d="M 0 1 h 9 v 8 h -9">
        </path>
      </g>
      <g transform="translate(40, 360)">
        <path d="M 1 10 v -9 h 9 M 10 9 h -1 v 1">
        </path>
      </g>
      <g transform="translate(50, 360)">
        <path d="M 0 1 h 9 v 8 h -9">
        </path>
      </g>
      <g transform="translate(60, 360)">
        <path d="M 1 10 v -9 h 9 M 10 9 h -1 v 1">
        </path>
      </g>
      <g transform="translate(70, 360)">
        <path d="M 0 1 h 9 v 8 h -9">
        </path>
      </g>
      <g transform="translate(80, 360)">
        <path d="M 1 10 v -9 h 9 M 10 9 h -1 v 1">
        </path>
      </g>
      <g transform="translate(90, 360)">
        <path d="M 0 9 h 9 v -9 M 0 1 h 1 v -1">
        </path>
      </g>
      <g transform="translate(100, 360)">
        <path d="M 10 1 h -9 v 8 h 9">
        </path>
      </g>
      <g transform="translate(110, 360)">
        <path d="M 0 1 h 9 v 9 M 0 9 h 1 v 1">
        </path>
      </g>
      <g transform="translate(0, 370)">
        <path d="M 1 0 v 9 h 9 M 10 1 h -1 v -1">
        </path>
      </g>
      <g transform="translate(10, 370)">
        <path d="M 0 1 h 9 v 9 M 0 9 h 1 v 1">
        </path>
      </g>
      <g transform="translate(20, 370)">
        <path d="M 1 0 v 9 h 9 M 10 1 h -1 v -1">
        </path>
      </g>
      <g transform="translate(30, 370)">
        <path d="M 0 1 h 9 v 9 M 0 9 h 1 v 1">
        </path>
      </g>
      <g transform="translate(40, 370)">
        <path d="M 1 0 v 10 M 10 1 h -1 v -1 M 10 9 h -1 v 1">
        </path>
      </g>
      <g transform="translate(50, 370)">
        <path d="M 0 1 h 9 v 8 h -9">
        </path>
      </g>
      <g transform="translate(60, 370)">
        <path d="M 1 0 v 9 h 9 M 10 1 h -1 v -1">
        </path>
      </g>
      <g transform="translate(70, 370)">
        <path d="M 0 1 h 9 v 9 M 0 9 h 1 v 1">
        </path>
      </g>
      <g transform="translate(80, 370)">
        <path d="M 1 0 v 9 h 9 M 10 1 h -1 v -1">
        </path>
      </g>
      <g transform="translate(90, 370)">
        <path d="M 0 1 h 9 v 9 M 0 9 h 1 v 1">
        </path>
      </g>
      <g transform="translate(100, 370)">
        <path d="M 1 10 v -9 h 9 M 10 9 h -1 v 1">
        </path>
      </g>
      <g transform="translate(110, 370)">
        <path d="M 0 9 h 9 v -9 M 0 1 h 1 v -1">
        </path>
      </g>
      <g transform="translate(0, 380)">
        <path d="M 10 1 h -9 v 8 h 9">
        </path>
      </g>
      <g transform="translate(10, 380)">
        <path d="M 0 9 h 10 M 0 1 h 1 v -1 M 10 1 h -1 v -1">
        </path>
      </g>
      <g transform="translate(20, 380)">
        <path d="M 0 9 h 10 M 0 1 h 10">
        </path>
      </g>
      <g transform="translate(30, 380)">
        <path d="M 0 9 h 10 M 0 1 h 1 v -1 M 10 1 h -1 v -1">
        </path>
      </g>
      <g transform="translate(40, 380)">
        <path d="M 0 9 h 10 M 0 1 h 1 v -1 M 10 1 h -1 v -1">
        </path>
      </g>
      <g transform="translate(50, 380)">
        <path d="M 0 9 h 10 M 0 1 h 10">
        </path>
      </g>
      <g transform="translate(60, 380)">
        <path d="M 0 9 h 10 M 0 1 h 10">
        </path>
      </g>
      <g transform="translate(70, 380)">
        <path d="M 0 9 h 10 M 0 1 h 1 v -1 M 10 1 h -1 v -1">
        </path>
      </g>
      <g transform="translate(80, 380)">
        <path d="M 0 9 h 10 M 0 1 h 10">
        </path>
      </g>
      <g transform="translate(90, 380)">
        <path d="M 0 9 h 10 M 0 1 h 1 v -1 M 10 1 h -1 v -1">
        </path>
      </g>
      <g transform="translate(100, 380)">
        <path d="M 0 9 h 10 M 0 1 h 1 v -1 M 10 1 h -1 v -1">
        </path>
      </g>
      <g transform="translate(110, 380)">
        <path d="M 0 1 h 9 v 9 M 0 9 h 1 v 1">
        </path>
      </g>
      <g transform="translate(0, 390)">
        <path d="M 1 10 v -9 h 9 M 10 9 h -1 v 1">
        </path>
      </g>
      <g transform="translate(10, 390)">
        <path d="M 0 1 h 9 v 8 h -9">
        </path>
      </g>
      <g transform="translate(20, 390)">
        <path d="M 10 1 h -9 v 8 h 9">
        </path>
      </g>
      <g transform="translate(30, 390)">
        <path d="M 0 1 h 9 v 9 M 0 9 h 1 v 1">
        </path>
      </g>
      <g transform="translate(40, 390)">
        <path d="M 1 10 v -9 h 9 M 10 9 h -1 v 1">
        </path>
      </g>
      <g transform="translate(50, 390)">
        <path d="M 0 1 h 9 v 8 h -9">
        </path>
      </g>
      <g transform="translate(60, 390)">
        <path d="M 10 1 h -9 v 8 h 9">
        </path>
      </g>
      <g transform="translate(70, 390)">
        <path d="M 0 1 h 9 v 9 M 0 9 h 1 v 1">
        </path>
      </g>
      <g transform="translate(80, 390)">
        <path d="M 1 10 v -9 h 9 M 10 9 h -1 v 1">
        </path>
      </g>
      <g transform="translate(90, 390)">
        <path d="M 0 1 h 9 v 8 h -9">
        </path>
      </g>
      <g transform="translate(100, 390)">
        <path d="M 1 10 v -9 h 9 M 10 9 h -1 v 1">
        </path>
      </g>
      <g transform="translate(110, 390)">
        <path d="M 0 9 h 9 v -9 M 0 1 h 1 v -1">
        </path>
      </g>
      <g transform="translate(0, 400)">
        <path d="M 1 0 v 9 h 9 M 10 1 h -1 v -1">
        </path>
      </g>
      <g transform="translate(10, 400)">
        <path d="M 0 1 h 9 v 9 M 0 9 h 1 v 1">
        </path>
      </g>
      <g transform="translate(20, 400)">
        <path d="M 1 10 v -9 h 9 M 10 9 h -1 v 1">
        </path>
      </g>
      <g transform="translate(30, 400)">
        <path d="M 0 9 h 9 v -9 M 0 1 h 1 v -1">
        </path>
      </g>
      <g transform="translate(40, 400)">
        <path d="M 1 0 v 9 h 9 M 10 1 h -1 v -1">
        </path>
      </g>
      <g transform="translate(50, 400)">
        <path d="M 0 1 h 9 v 9 M 0 9 h 1 v 1">
        </path>
      </g>
      <g transform="translate(60, 400)">
        <path d="M 1 10 v -9 h 9 M 10 9 h -1 v 1">
        </path>
      </g>
      <g transform="translate(70, 400)">
        <path d="M 0 9 h 9 v -9 M 0 1 h 1 v -1">
        </path>
      </g>
      <g transform="translate(80, 400)">
        <path d="M 1 0 v 9 h 9 M 10 1 h -1 v -1">
        </path>
      </g>
      <g transform="translate(90, 400)">
        <path d="M 0 1 h 9 v 9 M 0 9 h 1 v 1">
        </path>
      </g>
      <g transform="translate(100, 400)">
        <path d="M 1 0 v 9 h 9 M 10 1 h -1 v -1">
        </path>
      </g>
      <g transform="translate(110, 400)">
        <path d="M 0 1 h 9 v 9 M 0 9 h 1 v 1">
        </path>
      </g>
      <g transform="translate(0, 410)">
        <path d="M 10 1 h -9 v 8 h 9">
        </path>
      </g>
      <g transform="translate(10, 410)">
        <path d="M 0 9 h 10 M 0 1 h 1 v -1 M 10 1 h -1 v -1">
        </path>
      </g>
      <g transform="translate(20, 410)">
        <path d="M 0 9 h 10 M 0 1 h 1 v -1 M 10 1 h -1 v -1">
        </path>
      </g>
      <g transform="translate(30, 410)">
        <path d="M 0 9 h 10 M 0 1 h 10">
        </path>
      </g>
      <g transform="translate(40, 410)">
        <path d="M 0 9 h 10 M 0 1 h 10">
        </path>
      </g>
      <g transform="translate(50, 410)">
        <path d="M 0 9 h 10 M 0 1 h 1 v -1 M 10 1 h -1 v -1">
        </path>
      </g>
      <g transform="translate(60, 410)">
        <path d="M 0 9 h 10 M 0 1 h 1 v -1 M 10 1 h -1 v -1">
        </path>
      </g>
      <g transform="translate(70, 410)">
        <path d="M 0 9 h 10 M 0 1 h 10">
        </path>
      </g>
      <g transform="translate(80, 410)">
        <path d="M 0 9 h 10 M 0 1 h 10">
        </path>
      </g>
      <g transform="translate(90, 410)">
        <path d="M 0 9 h 10 M 0 1 h 1 v -1 M 10 1 h -1 v -1">
        </path>
      </g>
      <g transform="translate(100, 410)">
        <path d="M 0 9 h 10 M 0 1 h 10">
        </path>
      </g>
      <g transform="translate(110, 410)">
        <path d="M 0 9 h 9 v -9 M 0 1 h 1 v -1">
        </path>
      </g>
    </g>
  </g>
</svg>